<?xml version="1.0" encoding="UTF-8" standalone="no"?>
<!DOCTYPE svg PUBLIC "-//W3C//DTD SVG 1.1//EN"
 "http://www.w3.org/Graphics/SVG/1.1/DTD/svg11.dtd">
<!-- Generated by graphviz version 2.46.0 (20210118.1747)
 -->
<!-- Title: QaterialHotReload Pages: 1 -->
<svg width="2861pt" height="914pt"
 viewBox="0.00 0.00 2860.53 914.48" xmlns="http://www.w3.org/2000/svg" xmlns:xlink="http://www.w3.org/1999/xlink">
<g id="graph0" class="graph" transform="scale(1 1) rotate(0) translate(4 910.48)">
<title>QaterialHotReload</title>
<g id="clust1" class="cluster">
<title>clusterLegend</title>
<polygon fill="transparent" stroke="black" points="8,-647.43 8,-898.48 521,-898.48 521,-647.43 8,-647.43"/>
<text text-anchor="middle" x="264.5" y="-883.28" font-family="Times New Roman,serif" font-size="14.00">Legend</text>
</g>
<!-- legendNode0 -->
<g id="node1" class="node">
<title>legendNode0</title>
<polygon fill="white" stroke="black" points="274.98,-831.53 277.62,-831.63 280.23,-831.77 282.8,-831.97 285.32,-832.21 287.79,-832.51 290.18,-832.84 292.5,-833.23 294.74,-833.65 296.87,-834.13 298.91,-834.64 300.84,-835.19 302.65,-835.79 304.34,-836.42 305.9,-837.08 307.33,-837.79 308.63,-838.52 309.79,-839.28 310.81,-840.07 311.69,-840.89 312.43,-841.73 313.03,-842.59 313.48,-843.47 313.8,-844.37 313.99,-845.28 314.04,-846.2 313.95,-847.13 313.75,-848.07 313.41,-849.01 312.97,-849.95 312.4,-850.89 311.73,-851.83 310.96,-852.76 310.09,-853.68 309.13,-854.59 308.08,-855.49 306.96,-856.37 305.76,-857.23 304.49,-858.07 303.16,-858.89 301.78,-859.68 300.34,-860.44 298.86,-861.17 297.33,-861.87 295.77,-862.54 294.17,-863.17 292.55,-863.76 290.9,-864.32 289.23,-864.83 287.54,-865.3 285.84,-865.73 284.12,-866.11 282.39,-866.45 280.65,-866.74 278.91,-866.99 277.15,-867.18 275.4,-867.33 273.64,-867.43 271.88,-867.48 270.12,-867.48 268.36,-867.43 266.6,-867.33 264.85,-867.18 263.09,-866.99 261.35,-866.74 259.61,-866.45 257.88,-866.11 256.16,-865.73 254.46,-865.3 252.77,-864.83 251.1,-864.32 249.45,-863.76 247.83,-863.17 246.23,-862.54 244.67,-861.87 243.14,-861.17 241.66,-860.44 240.22,-859.68 238.84,-858.89 237.51,-858.07 236.24,-857.23 235.04,-856.37 233.92,-855.49 232.87,-854.59 231.91,-853.68 231.04,-852.76 230.27,-851.83 229.6,-850.89 229.03,-849.95 228.59,-849.01 228.25,-848.07 228.05,-847.13 227.96,-846.2 228.01,-845.28 228.2,-844.37 228.52,-843.47 228.97,-842.59 229.57,-841.73 230.31,-840.89 231.19,-840.07 232.21,-839.28 233.37,-838.52 234.67,-837.79 236.1,-837.08 237.66,-836.42 239.35,-835.79 241.16,-835.19 243.09,-834.64 245.13,-834.13 247.26,-833.65 249.5,-833.23 251.82,-832.84 254.21,-832.51 256.68,-832.21 259.2,-831.97 261.77,-831.77 264.38,-831.63 267.02,-831.53 269.67,-831.48 272.33,-831.48 274.98,-831.53"/>
<text text-anchor="middle" x="271" y="-846.38" font-family="Times New Roman,serif" font-size="12.00">Executable</text>
</g>
<!-- legendNode1 -->
<g id="node2" class="node">
<title>legendNode1</title>
<polygon fill="white" stroke="black" points="119.94,-761 119.94,-775.91 89.52,-786.46 46.48,-786.46 16.06,-775.91 16.06,-761 46.48,-750.46 89.52,-750.46 119.94,-761"/>
<text text-anchor="middle" x="68" y="-765.36" font-family="Times New Roman,serif" font-size="12.00">Static Library</text>
</g>
<!-- legendNode0&#45;&gt;legendNode1 -->
<g id="edge1" class="edge">
<title>legendNode0&#45;&gt;legendNode1</title>
<path fill="none" stroke="black" d="M237.91,-836.17C209.07,-825.38 166.16,-809.16 129,-794.48 122.71,-791.99 116.07,-789.32 109.57,-786.68"/>
<polygon fill="black" stroke="black" points="110.81,-783.4 100.23,-782.86 108.16,-789.88 110.81,-783.4"/>
</g>
<!-- legendNode2 -->
<g id="node3" class="node">
<title>legendNode2</title>
<polygon fill="white" stroke="black" points="255.76,-761 255.76,-775.91 222.51,-786.46 175.49,-786.46 142.24,-775.91 142.24,-761 175.49,-750.46 222.51,-750.46 255.76,-761"/>
<polygon fill="none" stroke="black" points="259.77,-758.07 259.77,-778.84 223.13,-790.46 174.87,-790.46 138.23,-778.84 138.23,-758.07 174.87,-746.46 223.13,-746.46 259.77,-758.07"/>
<text text-anchor="middle" x="199" y="-765.36" font-family="Times New Roman,serif" font-size="12.00">Shared Library</text>
</g>
<!-- legendNode0&#45;&gt;legendNode2 -->
<g id="edge2" class="edge">
<title>legendNode0&#45;&gt;legendNode2</title>
<path fill="none" stroke="black" d="M256.08,-832.11C247.18,-822.34 235.62,-809.65 225.24,-798.25"/>
<polygon fill="black" stroke="black" points="227.6,-795.65 218.28,-790.62 222.43,-800.37 227.6,-795.65"/>
</g>
<!-- legendNode3 -->
<g id="node4" class="node">
<title>legendNode3</title>
<polygon fill="white" stroke="black" points="402.75,-761 402.75,-775.91 368.34,-786.46 319.66,-786.46 285.25,-775.91 285.25,-761 319.66,-750.46 368.34,-750.46 402.75,-761"/>
<polygon fill="none" stroke="black" points="406.76,-758.04 406.76,-778.87 368.94,-790.46 319.06,-790.46 281.24,-778.87 281.24,-758.04 319.06,-746.46 368.94,-746.46 406.76,-758.04"/>
<polygon fill="none" stroke="black" points="410.77,-755.09 410.77,-781.83 369.54,-794.46 318.46,-794.46 277.23,-781.83 277.23,-755.09 318.46,-742.46 369.54,-742.46 410.77,-755.09"/>
<text text-anchor="middle" x="344" y="-765.36" font-family="Times New Roman,serif" font-size="12.00">Module Library</text>
</g>
<!-- legendNode0&#45;&gt;legendNode3 -->
<!-- legendNode7 -->
<g id="node8" class="node">
<title>legendNode7</title>
<polygon fill="white" stroke="black" points="513,-786.46 429,-786.46 429,-750.46 513,-750.46 513,-786.46"/>
<text text-anchor="middle" x="471" y="-765.36" font-family="Times New Roman,serif" font-size="12.00">Custom Target</text>
</g>
<!-- legendNode0&#45;&gt;legendNode7 -->
<!-- legendNode4 -->
<g id="node5" class="node">
<title>legendNode4</title>
<polygon fill="white" stroke="black" points="156.01,-679 86,-691.43 15.99,-679 42.73,-658.87 129.27,-658.87 156.01,-679"/>
<text text-anchor="middle" x="86" y="-670.33" font-family="Times New Roman,serif" font-size="12.00">Interface Library</text>
</g>
<!-- legendNode1&#45;&gt;legendNode4 -->
<g id="edge4" class="edge">
<title>legendNode1&#45;&gt;legendNode4</title>
<path fill="none" stroke="black" stroke-dasharray="5,2" d="M71.3,-750.39C73.96,-736.67 77.74,-717.14 80.8,-701.32"/>
<polygon fill="black" stroke="black" points="84.32,-701.56 82.78,-691.07 77.44,-700.23 84.32,-701.56"/>
<text text-anchor="middle" x="104.5" y="-713.23" font-family="Times New Roman,serif" font-size="14.00">Interface</text>
</g>
<!-- legendNode5 -->
<g id="node6" class="node">
<title>legendNode5</title>
<polygon fill="white" stroke="black" points="293.92,-673.43 263.96,-691.43 204.04,-691.43 174.08,-673.43 204.04,-655.43 263.96,-655.43 293.92,-673.43"/>
<text text-anchor="middle" x="234" y="-670.33" font-family="Times New Roman,serif" font-size="12.00">Object Library</text>
</g>
<!-- legendNode2&#45;&gt;legendNode5 -->
<g id="edge5" class="edge">
<title>legendNode2&#45;&gt;legendNode5</title>
<path fill="none" stroke="black" stroke-dasharray="1,5" d="M206.94,-746.35C211.99,-732.93 218.57,-715.45 223.97,-701.08"/>
<polygon fill="black" stroke="black" points="227.25,-702.32 227.49,-691.72 220.7,-699.85 227.25,-702.32"/>
<text text-anchor="middle" x="240.5" y="-713.23" font-family="Times New Roman,serif" font-size="14.00">Private</text>
</g>
<!-- legendNode6 -->
<g id="node7" class="node">
<title>legendNode6</title>
<polygon fill="white" stroke="black" points="444.05,-669.43 430.97,-684.66 378,-691.43 325.03,-684.66 311.95,-669.43 348.6,-657.22 407.4,-657.22 444.05,-669.43"/>
<text text-anchor="middle" x="378" y="-670.33" font-family="Times New Roman,serif" font-size="12.00">Unknown Library</text>
</g>
<!-- legendNode3&#45;&gt;legendNode6 -->
<g id="edge6" class="edge">
<title>legendNode3&#45;&gt;legendNode6</title>
<path fill="none" stroke="black" d="M353.29,-742.04C358.01,-729.13 363.73,-713.48 368.48,-700.49"/>
<polygon fill="black" stroke="black" points="371.89,-701.34 372.04,-690.74 365.32,-698.93 371.89,-701.34"/>
</g>
<!-- node0 -->
<g id="node9" class="node">
<title>node0</title>
<polygon fill="white" stroke="black" points="1965.97,-581.26 1965.97,-596.17 1948.41,-606.72 1923.59,-606.72 1906.03,-596.17 1906.03,-581.26 1923.59,-570.72 1948.41,-570.72 1965.97,-581.26"/>
<text text-anchor="middle" x="1936" y="-585.62" font-family="Times New Roman,serif" font-size="12.00">QOlm</text>
</g>
<!-- node1 -->
<g id="node10" class="node">
<title>node1</title>
<polygon fill="white" stroke="black" points="2588.6,-486.05 2590.98,-486.15 2593.33,-486.3 2595.65,-486.49 2597.93,-486.74 2600.16,-487.03 2602.32,-487.36 2604.42,-487.75 2606.43,-488.18 2608.36,-488.65 2610.2,-489.16 2611.94,-489.71 2613.57,-490.31 2615.1,-490.94 2616.51,-491.61 2617.8,-492.31 2618.97,-493.04 2620.02,-493.8 2620.94,-494.59 2621.74,-495.41 2622.4,-496.25 2622.95,-497.11 2623.36,-497.99 2623.65,-498.89 2623.81,-499.8 2623.86,-500.72 2623.78,-501.65 2623.6,-502.59 2623.3,-503.53 2622.89,-504.47 2622.38,-505.41 2621.78,-506.35 2621.08,-507.28 2620.3,-508.2 2619.43,-509.11 2618.48,-510.01 2617.47,-510.89 2616.39,-511.75 2615.24,-512.59 2614.04,-513.41 2612.79,-514.2 2611.49,-514.96 2610.15,-515.69 2608.77,-516.39 2607.36,-517.06 2605.92,-517.69 2604.46,-518.29 2602.97,-518.84 2601.46,-519.35 2599.94,-519.82 2598.4,-520.25 2596.84,-520.64 2595.28,-520.97 2593.71,-521.26 2592.14,-521.51 2590.56,-521.7 2588.97,-521.85 2587.38,-521.95 2585.79,-522 2584.21,-522 2582.62,-521.95 2581.03,-521.85 2579.44,-521.7 2577.86,-521.51 2576.29,-521.26 2574.72,-520.97 2573.16,-520.64 2571.6,-520.25 2570.06,-519.82 2568.54,-519.35 2567.03,-518.84 2565.54,-518.29 2564.08,-517.69 2562.64,-517.06 2561.23,-516.39 2559.85,-515.69 2558.51,-514.96 2557.21,-514.2 2555.96,-513.41 2554.76,-512.59 2553.61,-511.75 2552.53,-510.89 2551.52,-510.01 2550.57,-509.11 2549.7,-508.2 2548.92,-507.28 2548.22,-506.35 2547.62,-505.41 2547.11,-504.47 2546.7,-503.53 2546.4,-502.59 2546.22,-501.65 2546.14,-500.72 2546.19,-499.8 2546.35,-498.89 2546.64,-497.99 2547.05,-497.11 2547.6,-496.25 2548.26,-495.41 2549.06,-494.59 2549.98,-493.8 2551.03,-493.04 2552.2,-492.31 2553.49,-491.61 2554.9,-490.94 2556.43,-490.31 2558.06,-489.71 2559.8,-489.16 2561.64,-488.65 2563.57,-488.18 2565.58,-487.75 2567.68,-487.36 2569.84,-487.03 2572.07,-486.74 2574.35,-486.49 2576.67,-486.3 2579.02,-486.15 2581.4,-486.05 2583.8,-486 2586.2,-486 2588.6,-486.05"/>
<text text-anchor="middle" x="2585" y="-500.9" font-family="Times New Roman,serif" font-size="12.00">Qt5::moc</text>
</g>
<!-- node0&#45;&gt;node1 -->
<g id="edge8" class="edge">
<title>node0&#45;&gt;node1</title>
<path fill="none" stroke="black" d="M1966.06,-582.88C2003.65,-576.9 2070,-566.6 2127,-559 2268.04,-540.2 2303.71,-538.8 2445,-522 2476.91,-518.21 2512.89,-513.83 2540.39,-510.47"/>
<polygon fill="black" stroke="black" points="2540.98,-513.93 2550.49,-509.24 2540.13,-506.98 2540.98,-513.93"/>
</g>
<!-- node2 -->
<g id="node11" class="node">
<title>node2</title>
<polygon fill="white" stroke="black" points="1632.72,-509.56 1590,-522 1547.28,-509.56 1563.6,-489.44 1616.4,-489.44 1632.72,-509.56"/>
<text text-anchor="middle" x="1590" y="-500.9" font-family="Times New Roman,serif" font-size="12.00">Qt::Core</text>
</g>
<!-- node0&#45;&gt;node2 -->
<g id="edge10" class="edge">
<title>node0&#45;&gt;node2</title>
<path fill="none" stroke="black" d="M1914.63,-575.69C1893.55,-564.45 1860.08,-548.19 1829,-540 1748.26,-518.72 1723.73,-539.08 1642,-522 1636.54,-520.86 1630.84,-519.35 1625.31,-517.69"/>
<polygon fill="black" stroke="black" points="1626.21,-514.3 1615.62,-514.61 1624.09,-520.98 1626.21,-514.3"/>
</g>
<!-- node4 -->
<g id="node13" class="node">
<title>node4</title>
<polygon fill="white" stroke="black" points="1911.16,-509.56 1871,-522 1830.84,-509.56 1846.18,-489.44 1895.82,-489.44 1911.16,-509.56"/>
<text text-anchor="middle" x="1871" y="-500.9" font-family="Times New Roman,serif" font-size="12.00">Qt::Qml</text>
</g>
<!-- node0&#45;&gt;node4 -->
<g id="edge15" class="edge">
<title>node0&#45;&gt;node4</title>
<path fill="none" stroke="black" d="M1948.31,-570.38C1953.45,-560.86 1956.99,-549.16 1951,-540 1942.99,-527.75 1929.64,-519.76 1916.12,-514.56"/>
<polygon fill="black" stroke="black" points="1916.91,-511.13 1906.31,-511.25 1914.67,-517.77 1916.91,-511.13"/>
</g>
<!-- node3 -->
<g id="node12" class="node">
<title>node3</title>
<polygon fill="white" stroke="black" points="1554.14,-14.54 1554.14,-29.46 1530.04,-40 1495.96,-40 1471.86,-29.46 1471.86,-14.54 1495.96,-4 1530.04,-4 1554.14,-14.54"/>
<polygon fill="none" stroke="black" points="1558.12,-11.92 1558.12,-32.08 1530.87,-44 1495.13,-44 1467.88,-32.08 1467.88,-11.92 1495.13,0 1530.87,0 1558.12,-11.92"/>
<text text-anchor="middle" x="1513" y="-18.9" font-family="Times New Roman,serif" font-size="12.00">Qt5::Core</text>
</g>
<!-- node2&#45;&gt;node3 -->
<g id="edge9" class="edge">
<title>node2&#45;&gt;node3</title>
<path fill="none" stroke="black" stroke-dasharray="5,2" d="M1589.71,-489.18C1589.41,-474.13 1589,-449.36 1589,-428 1589,-428 1589,-428 1589,-102 1589,-77.8 1570.24,-58.14 1551.37,-44.49"/>
<polygon fill="black" stroke="black" points="1553.28,-41.56 1543.04,-38.83 1549.34,-47.35 1553.28,-41.56"/>
</g>
<!-- node5 -->
<g id="node14" class="node">
<title>node5</title>
<polygon fill="white" stroke="black" points="2053.14,-176.54 2053.14,-191.46 2030.21,-202 1997.79,-202 1974.86,-191.46 1974.86,-176.54 1997.79,-166 2030.21,-166 2053.14,-176.54"/>
<polygon fill="none" stroke="black" points="2057.12,-173.98 2057.12,-194.02 2031.08,-206 1996.92,-206 1970.88,-194.02 1970.88,-173.98 1996.92,-162 2031.08,-162 2057.12,-173.98"/>
<text text-anchor="middle" x="2014" y="-180.9" font-family="Times New Roman,serif" font-size="12.00">Qt5::Qml</text>
</g>
<!-- node4&#45;&gt;node5 -->
<g id="edge14" class="edge">
<title>node4&#45;&gt;node5</title>
<path fill="none" stroke="black" stroke-dasharray="5,2" d="M1871,-489.18C1871,-474.13 1871,-449.35 1871,-428 1871,-428 1871,-428 1871,-264 1871,-221.42 1920.18,-201.61 1960.85,-192.51"/>
<polygon fill="black" stroke="black" points="1961.62,-195.93 1970.71,-190.47 1960.21,-189.07 1961.62,-195.93"/>
</g>
<!-- node5&#45;&gt;node3 -->
<g id="edge11" class="edge">
<title>node5&#45;&gt;node3</title>
<path fill="none" stroke="black" d="M2017.03,-161.82C2019.04,-138.63 2018.18,-101.96 1997,-81 1966.97,-51.29 1689.32,-32.64 1568.61,-25.87"/>
<polygon fill="black" stroke="black" points="1568.64,-22.37 1558.46,-25.31 1568.26,-29.36 1568.64,-22.37"/>
</g>
<!-- node6 -->
<g id="node15" class="node">
<title>node6</title>
<polygon fill="white" stroke="black" points="1984.12,-95.54 1984.12,-110.46 1953,-121 1909,-121 1877.88,-110.46 1877.88,-95.54 1909,-85 1953,-85 1984.12,-95.54"/>
<polygon fill="none" stroke="black" points="1988.11,-92.67 1988.11,-113.33 1953.66,-125 1908.34,-125 1873.89,-113.33 1873.89,-92.67 1908.34,-81 1953.66,-81 1988.11,-92.67"/>
<text text-anchor="middle" x="1931" y="-99.9" font-family="Times New Roman,serif" font-size="12.00">Qt5::Network</text>
</g>
<!-- node5&#45;&gt;node6 -->
<g id="edge13" class="edge">
<title>node5&#45;&gt;node6</title>
<path fill="none" stroke="black" d="M1993.48,-163.47C1983.58,-154.04 1971.5,-142.55 1960.62,-132.19"/>
<polygon fill="black" stroke="black" points="1962.98,-129.6 1953.32,-125.24 1958.15,-134.67 1962.98,-129.6"/>
</g>
<!-- node6&#45;&gt;node3 -->
<g id="edge12" class="edge">
<title>node6&#45;&gt;node3</title>
<path fill="none" stroke="black" d="M1902.85,-82.69C1890.28,-74.99 1874.94,-66.83 1860,-62 1760.82,-29.96 1638.35,-23.36 1568.61,-22.49"/>
<polygon fill="black" stroke="black" points="1568.32,-18.99 1558.29,-22.4 1568.26,-25.99 1568.32,-18.99"/>
</g>
<!-- node7 -->
<g id="node16" class="node">
<title>node7</title>
<polygon fill="white" stroke="black" points="1827.13,-665.98 1827.13,-680.89 1806.55,-691.43 1777.45,-691.43 1756.87,-680.89 1756.87,-665.98 1777.45,-655.43 1806.55,-655.43 1827.13,-665.98"/>
<text text-anchor="middle" x="1792" y="-670.33" font-family="Times New Roman,serif" font-size="12.00">Qaterial</text>
</g>
<!-- node7&#45;&gt;node0 -->
<g id="edge16" class="edge">
<title>node7&#45;&gt;node0</title>
<path fill="none" stroke="black" d="M1825.84,-665.01C1846.15,-659.52 1871.86,-650.67 1892,-637.43 1901.18,-631.4 1909.75,-623.04 1916.85,-615"/>
<polygon fill="black" stroke="black" points="1919.67,-617.08 1923.41,-607.17 1914.31,-612.58 1919.67,-617.08"/>
</g>
<!-- node7&#45;&gt;node1 -->
<g id="edge61" class="edge">
<title>node7&#45;&gt;node1</title>
<path fill="none" stroke="black" d="M1827.58,-672.41C1971.44,-671.96 2505.16,-667.04 2561,-618.43 2585.15,-597.41 2588.56,-558.71 2587.67,-532.42"/>
<polygon fill="black" stroke="black" points="2591.16,-532.13 2587.1,-522.34 2584.17,-532.52 2591.16,-532.13"/>
</g>
<!-- node7&#45;&gt;node2 -->
<g id="edge62" class="edge">
<title>node7&#45;&gt;node2</title>
<path fill="none" stroke="black" d="M1804.8,-655.07C1820.9,-630.94 1843.85,-587.05 1821,-559 1769.7,-496.01 1720.51,-542.88 1642,-522 1636.91,-520.65 1631.59,-519.08 1626.37,-517.46"/>
<polygon fill="black" stroke="black" points="1627.14,-514.03 1616.55,-514.31 1625,-520.7 1627.14,-514.03"/>
</g>
<!-- node7&#45;&gt;node4 -->
<g id="edge64" class="edge">
<title>node7&#45;&gt;node4</title>
<path fill="none" stroke="black" d="M1827.29,-667.09C1875.31,-659.02 1957.3,-642.11 1975,-618.43 1996.04,-590.29 1991.39,-563.21 1965,-540 1951.01,-527.69 1932.29,-519.56 1915.24,-514.26"/>
<polygon fill="black" stroke="black" points="1916.02,-510.85 1905.45,-511.46 1914.1,-517.58 1916.02,-510.85"/>
</g>
<!-- node8 -->
<g id="node17" class="node">
<title>node8</title>
<polygon fill="white" stroke="black" points="1812.25,-577.93 1812.25,-599.51 1757.63,-614.76 1680.37,-614.76 1625.75,-599.51 1625.75,-577.93 1680.37,-562.67 1757.63,-562.67 1812.25,-577.93"/>
<text text-anchor="middle" x="1719" y="-592.12" font-family="Times New Roman,serif" font-size="12.00">QaterialComponents</text>
<text text-anchor="middle" x="1719" y="-579.12" font-family="Times New Roman,serif" font-size="12.00">(Qaterial::Components)</text>
</g>
<!-- node7&#45;&gt;node8 -->
<g id="edge46" class="edge">
<title>node7&#45;&gt;node8</title>
<path fill="none" stroke="black" stroke-dasharray="1,5" d="M1776.87,-655.3C1768.53,-645.84 1757.88,-633.77 1747.99,-622.57"/>
<polygon fill="black" stroke="black" points="1750.55,-620.18 1741.31,-615 1745.31,-624.81 1750.55,-620.18"/>
</g>
<!-- node10 -->
<g id="node19" class="node">
<title>node10</title>
<polygon fill="white" stroke="black" points="1167.07,-509.56 1130,-522 1092.93,-509.56 1107.09,-489.44 1152.91,-489.44 1167.07,-509.56"/>
<text text-anchor="middle" x="1130" y="-500.9" font-family="Times New Roman,serif" font-size="12.00">Qt::Gui</text>
</g>
<!-- node7&#45;&gt;node10 -->
<g id="edge63" class="edge">
<title>node7&#45;&gt;node10</title>
<path fill="none" stroke="black" d="M1756.76,-670.7C1604.72,-663.12 1011.9,-632.71 999,-618.43 981.29,-598.83 984.31,-580.95 999,-559 1017.61,-531.21 1053.4,-517.7 1082.88,-511.15"/>
<polygon fill="black" stroke="black" points="1083.89,-514.52 1093,-509.11 1082.51,-507.65 1083.89,-514.52"/>
</g>
<!-- node12 -->
<g id="node21" class="node">
<title>node12</title>
<polygon fill="white" stroke="black" points="2051.33,-509.56 2005,-522 1958.67,-509.56 1976.37,-489.44 2033.63,-489.44 2051.33,-509.56"/>
<text text-anchor="middle" x="2005" y="-500.9" font-family="Times New Roman,serif" font-size="12.00">Qt::Quick</text>
</g>
<!-- node7&#45;&gt;node12 -->
<g id="edge65" class="edge">
<title>node7&#45;&gt;node12</title>
<path fill="none" stroke="black" d="M1827.21,-668.63C1880.3,-662.02 1976.64,-646.41 1995,-618.43 2012.01,-592.52 2011.93,-555.79 2009.32,-531.22"/>
<polygon fill="black" stroke="black" points="2012.78,-530.67 2008.04,-521.19 2005.83,-531.55 2012.78,-530.67"/>
</g>
<!-- node15 -->
<g id="node24" class="node">
<title>node15</title>
<polygon fill="white" stroke="black" points="1812.81,-509.56 1732,-522 1651.19,-509.56 1682.06,-489.44 1781.94,-489.44 1812.81,-509.56"/>
<text text-anchor="middle" x="1732" y="-500.9" font-family="Times New Roman,serif" font-size="12.00">Qt::QuickControls2</text>
</g>
<!-- node7&#45;&gt;node15 -->
<g id="edge66" class="edge">
<title>node7&#45;&gt;node15</title>
<path fill="none" stroke="black" d="M1821.83,-663.16C1834.05,-657.73 1846.96,-649.5 1854,-637.43 1871.58,-607.33 1870.32,-589.8 1854,-559 1842.52,-537.33 1819.66,-524.35 1796.81,-516.58"/>
<polygon fill="black" stroke="black" points="1797.64,-513.17 1787.05,-513.55 1795.57,-519.85 1797.64,-513.17"/>
</g>
<!-- node17 -->
<g id="node26" class="node">
<title>node17</title>
<polygon fill="white" stroke="black" points="1269.09,-509.56 1231,-522 1192.91,-509.56 1207.46,-489.44 1254.54,-489.44 1269.09,-509.56"/>
<text text-anchor="middle" x="1231" y="-500.9" font-family="Times New Roman,serif" font-size="12.00">Qt::Svg</text>
</g>
<!-- node7&#45;&gt;node17 -->
<g id="edge67" class="edge">
<title>node7&#45;&gt;node17</title>
<path fill="none" stroke="black" d="M1756.73,-670.64C1606.59,-662.91 1027.79,-632.25 1015,-618.43 997.06,-599.05 998.55,-579.66 1015,-559 1060.73,-501.56 1105.1,-541.08 1176,-522 1182.21,-520.33 1188.77,-518.43 1195.11,-516.51"/>
<polygon fill="black" stroke="black" points="1196.29,-519.81 1204.82,-513.53 1194.23,-513.12 1196.29,-519.81"/>
</g>
<!-- node20 -->
<g id="node29" class="node">
<title>node20</title>
<polygon fill="white" stroke="black" points="1512.63,-509.56 1473,-522 1433.37,-509.56 1448.5,-489.44 1497.5,-489.44 1512.63,-509.56"/>
<text text-anchor="middle" x="1473" y="-500.9" font-family="Times New Roman,serif" font-size="12.00">Qt::Xml</text>
</g>
<!-- node7&#45;&gt;node20 -->
<g id="edge68" class="edge">
<title>node7&#45;&gt;node20</title>
<path fill="none" stroke="black" d="M1757.33,-665.69C1720.93,-657.73 1662.75,-642.44 1617,-618.43 1613.66,-616.68 1536.35,-555.36 1496.41,-523.62"/>
<polygon fill="black" stroke="black" points="1498.51,-520.81 1488.5,-517.33 1494.15,-526.29 1498.51,-520.81"/>
</g>
<!-- node22 -->
<g id="node31" class="node">
<title>node22</title>
<polygon fill="white" stroke="black" points="1315.77,-577.93 1315.77,-599.51 1275.48,-614.76 1218.52,-614.76 1178.23,-599.51 1178.23,-577.93 1218.52,-562.67 1275.48,-562.67 1315.77,-577.93"/>
<text text-anchor="middle" x="1247" y="-592.12" font-family="Times New Roman,serif" font-size="12.00">QaterialFonts</text>
<text text-anchor="middle" x="1247" y="-579.12" font-family="Times New Roman,serif" font-size="12.00">(Qaterial::Fonts)</text>
</g>
<!-- node7&#45;&gt;node22 -->
<g id="edge53" class="edge">
<title>node7&#45;&gt;node22</title>
<path fill="none" stroke="black" stroke-dasharray="1,5" d="M1756.82,-667.99C1701.24,-661.02 1589.7,-647.19 1495,-636.43 1419.51,-627.86 1398.99,-635.69 1325,-618.43 1317.39,-616.66 1309.51,-614.35 1301.82,-611.81"/>
<polygon fill="black" stroke="black" points="1302.8,-608.45 1292.2,-608.5 1300.52,-615.07 1302.8,-608.45"/>
</g>
<!-- node23 -->
<g id="node32" class="node">
<title>node23</title>
<polygon fill="white" stroke="black" points="1160.24,-577.93 1160.24,-599.51 1120.26,-614.76 1063.74,-614.76 1023.76,-599.51 1023.76,-577.93 1063.74,-562.67 1120.26,-562.67 1160.24,-577.93"/>
<text text-anchor="middle" x="1092" y="-592.12" font-family="Times New Roman,serif" font-size="12.00">QaterialIcons</text>
<text text-anchor="middle" x="1092" y="-579.12" font-family="Times New Roman,serif" font-size="12.00">(Qaterial::Icons)</text>
</g>
<!-- node7&#45;&gt;node23 -->
<g id="edge60" class="edge">
<title>node7&#45;&gt;node23</title>
<path fill="none" stroke="black" stroke-dasharray="1,5" d="M1756.71,-672.69C1660.91,-672.67 1388.49,-667.91 1169,-618.43 1161.46,-616.74 1153.67,-614.47 1146.07,-611.96"/>
<polygon fill="black" stroke="black" points="1147.17,-608.63 1136.57,-608.66 1144.87,-615.25 1147.17,-608.63"/>
</g>
<!-- node24 -->
<g id="node33" class="node">
<title>node24</title>
<polygon fill="white" stroke="black" points="2552.24,-577.93 2552.24,-599.51 2512.26,-614.76 2455.74,-614.76 2415.76,-599.51 2415.76,-577.93 2455.74,-562.67 2512.26,-562.67 2552.24,-577.93"/>
<text text-anchor="middle" x="2484" y="-592.12" font-family="Times New Roman,serif" font-size="12.00">spdlog</text>
<text text-anchor="middle" x="2484" y="-579.12" font-family="Times New Roman,serif" font-size="12.00">(spdlog::spdlog)</text>
</g>
<!-- node7&#45;&gt;node24 -->
<g id="edge70" class="edge">
<title>node7&#45;&gt;node24</title>
<path fill="none" stroke="black" d="M1827.2,-670.59C1940.54,-664.46 2295.14,-643.72 2407,-618.43 2414.53,-616.73 2422.33,-614.46 2429.93,-611.95"/>
<polygon fill="black" stroke="black" points="2431.13,-615.24 2439.42,-608.65 2428.83,-608.62 2431.13,-615.24"/>
</g>
<!-- node8&#45;&gt;node2 -->
<g id="edge18" class="edge">
<title>node8&#45;&gt;node2</title>
<path fill="none" stroke="black" stroke-dasharray="1,5" d="M1679.95,-562.67C1659.55,-549.6 1635.12,-533.93 1616.87,-522.23"/>
<polygon fill="black" stroke="black" points="1618.76,-519.28 1608.45,-516.83 1614.98,-525.17 1618.76,-519.28"/>
</g>
<!-- node8&#45;&gt;node4 -->
<g id="edge22" class="edge">
<title>node8&#45;&gt;node4</title>
<path fill="none" stroke="black" stroke-dasharray="1,5" d="M1762.56,-564.01C1788.04,-550.15 1819.52,-533.02 1841.98,-520.79"/>
<polygon fill="black" stroke="black" points="1843.9,-523.73 1851.01,-515.88 1840.56,-517.58 1843.9,-523.73"/>
</g>
<!-- node9 -->
<g id="node18" class="node">
<title>node9</title>
<polygon fill="white" stroke="black" points="1329.24,-486.05 1331.38,-486.15 1333.5,-486.3 1335.59,-486.49 1337.65,-486.74 1339.65,-487.03 1341.6,-487.36 1343.48,-487.75 1345.3,-488.18 1347.04,-488.65 1348.69,-489.16 1350.26,-489.71 1351.73,-490.31 1353.1,-490.94 1354.37,-491.61 1355.54,-492.31 1356.59,-493.04 1357.54,-493.8 1358.37,-494.59 1359.08,-495.41 1359.68,-496.25 1360.17,-497.11 1360.54,-497.99 1360.8,-498.89 1360.95,-499.8 1360.99,-500.72 1360.93,-501.65 1360.76,-502.59 1360.49,-503.53 1360.12,-504.47 1359.66,-505.41 1359.12,-506.35 1358.49,-507.28 1357.78,-508.2 1357,-509.11 1356.15,-510.01 1355.24,-510.89 1354.26,-511.75 1353.23,-512.59 1352.15,-513.41 1351.02,-514.2 1349.86,-514.96 1348.65,-515.69 1347.41,-516.39 1346.14,-517.06 1344.84,-517.69 1343.52,-518.29 1342.18,-518.84 1340.82,-519.35 1339.45,-519.82 1338.06,-520.25 1336.67,-520.64 1335.26,-520.97 1333.85,-521.26 1332.43,-521.51 1331,-521.7 1329.58,-521.85 1328.15,-521.95 1326.72,-522 1325.28,-522 1323.85,-521.95 1322.42,-521.85 1321,-521.7 1319.57,-521.51 1318.15,-521.26 1316.74,-520.97 1315.33,-520.64 1313.94,-520.25 1312.55,-519.82 1311.18,-519.35 1309.82,-518.84 1308.48,-518.29 1307.16,-517.69 1305.86,-517.06 1304.59,-516.39 1303.35,-515.69 1302.14,-514.96 1300.98,-514.2 1299.85,-513.41 1298.77,-512.59 1297.74,-511.75 1296.76,-510.89 1295.85,-510.01 1295,-509.11 1294.22,-508.2 1293.51,-507.28 1292.88,-506.35 1292.34,-505.41 1291.88,-504.47 1291.51,-503.53 1291.24,-502.59 1291.07,-501.65 1291.01,-500.72 1291.05,-499.8 1291.2,-498.89 1291.46,-497.99 1291.83,-497.11 1292.32,-496.25 1292.92,-495.41 1293.63,-494.59 1294.46,-493.8 1295.41,-493.04 1296.46,-492.31 1297.63,-491.61 1298.9,-490.94 1300.27,-490.31 1301.74,-489.71 1303.31,-489.16 1304.96,-488.65 1306.7,-488.18 1308.52,-487.75 1310.4,-487.36 1312.35,-487.03 1314.35,-486.74 1316.41,-486.49 1318.5,-486.3 1320.62,-486.15 1322.76,-486.05 1324.92,-486 1327.08,-486 1329.24,-486.05"/>
<text text-anchor="middle" x="1326" y="-500.9" font-family="Times New Roman,serif" font-size="12.00">Qt5::rcc</text>
</g>
<!-- node8&#45;&gt;node9 -->
<g id="edge17" class="edge">
<title>node8&#45;&gt;node9</title>
<path fill="none" stroke="black" d="M1645.54,-572.26C1562.45,-554.77 1430.25,-526.94 1365.02,-513.21"/>
<polygon fill="black" stroke="black" points="1365.65,-509.77 1355.15,-511.13 1364.21,-516.62 1365.65,-509.77"/>
</g>
<!-- node8&#45;&gt;node10 -->
<g id="edge21" class="edge">
<title>node8&#45;&gt;node10</title>
<path fill="none" stroke="black" stroke-dasharray="1,5" d="M1639.84,-573.96C1609.04,-568.87 1573.43,-563.29 1541,-559 1382.86,-538.07 1340.2,-554.34 1184,-522 1177.56,-520.67 1170.79,-518.87 1164.31,-516.94"/>
<polygon fill="black" stroke="black" points="1165.04,-513.5 1154.46,-513.85 1162.95,-520.18 1165.04,-513.5"/>
</g>
<!-- node8&#45;&gt;node12 -->
<g id="edge30" class="edge">
<title>node8&#45;&gt;node12</title>
<path fill="none" stroke="black" stroke-dasharray="1,5" d="M1788.51,-571.29C1822.59,-562.88 1864.14,-552.09 1901,-541 1923.7,-534.17 1948.81,-525.51 1968.68,-518.39"/>
<polygon fill="black" stroke="black" points="1970.04,-521.62 1978.26,-514.93 1967.67,-515.04 1970.04,-521.62"/>
</g>
<!-- node8&#45;&gt;node15 -->
<g id="edge35" class="edge">
<title>node8&#45;&gt;node15</title>
<path fill="none" stroke="black" stroke-dasharray="1,5" d="M1722.97,-562.45C1724.5,-552.75 1726.24,-541.65 1727.79,-531.81"/>
<polygon fill="black" stroke="black" points="1731.27,-532.18 1729.37,-521.75 1724.36,-531.09 1731.27,-532.18"/>
</g>
<!-- node8&#45;&gt;node17 -->
<g id="edge42" class="edge">
<title>node8&#45;&gt;node17</title>
<path fill="none" stroke="black" stroke-dasharray="1,5" d="M1637.97,-574.33C1607.58,-569.39 1572.72,-563.82 1541,-559 1426.04,-541.52 1395.17,-548.72 1282,-522 1276.49,-520.7 1270.73,-519.06 1265.15,-517.32"/>
<polygon fill="black" stroke="black" points="1265.98,-513.91 1255.39,-514.12 1263.8,-520.56 1265.98,-513.91"/>
</g>
<!-- node8&#45;&gt;node20 -->
<g id="edge45" class="edge">
<title>node8&#45;&gt;node20</title>
<path fill="none" stroke="black" stroke-dasharray="1,5" d="M1660.7,-568.11C1613.55,-552.26 1548.66,-530.44 1508.84,-517.05"/>
<polygon fill="black" stroke="black" points="1509.88,-513.71 1499.28,-513.84 1507.65,-520.34 1509.88,-513.71"/>
</g>
<!-- node11 -->
<g id="node20" class="node">
<title>node11</title>
<polygon fill="white" stroke="black" points="1162.78,-95.54 1162.78,-110.46 1141.23,-121 1110.77,-121 1089.22,-110.46 1089.22,-95.54 1110.77,-85 1141.23,-85 1162.78,-95.54"/>
<polygon fill="none" stroke="black" points="1166.79,-93.05 1166.79,-112.95 1142.17,-125 1109.83,-125 1085.21,-112.95 1085.21,-93.05 1109.83,-81 1142.17,-81 1166.79,-93.05"/>
<text text-anchor="middle" x="1126" y="-99.9" font-family="Times New Roman,serif" font-size="12.00">Qt5::Gui</text>
</g>
<!-- node10&#45;&gt;node11 -->
<g id="edge20" class="edge">
<title>node10&#45;&gt;node11</title>
<path fill="none" stroke="black" stroke-dasharray="5,2" d="M1157.6,-495.85C1188.11,-486.09 1233,-465.38 1233,-428 1233,-428 1233,-428 1233,-183 1233,-151.05 1201.74,-130.56 1173.02,-118.48"/>
<polygon fill="black" stroke="black" points="1174.01,-115.1 1163.42,-114.69 1171.44,-121.62 1174.01,-115.1"/>
</g>
<!-- node11&#45;&gt;node3 -->
<g id="edge19" class="edge">
<title>node11&#45;&gt;node3</title>
<path fill="none" stroke="black" d="M1146.68,-83.05C1156.4,-75.22 1168.58,-66.86 1181,-62 1230.11,-42.79 1376.8,-31.2 1457.78,-26.09"/>
<polygon fill="black" stroke="black" points="1458.03,-29.58 1467.8,-25.47 1457.6,-22.6 1458.03,-29.58"/>
</g>
<!-- node13 -->
<g id="node22" class="node">
<title>node13</title>
<polygon fill="white" stroke="black" points="2151.77,-338.54 2151.77,-353.46 2125.55,-364 2088.45,-364 2062.23,-353.46 2062.23,-338.54 2088.45,-328 2125.55,-328 2151.77,-338.54"/>
<polygon fill="none" stroke="black" points="2155.79,-335.84 2155.79,-356.16 2126.32,-368 2087.68,-368 2058.21,-356.16 2058.21,-335.84 2087.68,-324 2126.32,-324 2155.79,-335.84"/>
<text text-anchor="middle" x="2107" y="-342.9" font-family="Times New Roman,serif" font-size="12.00">Qt5::Quick</text>
</g>
<!-- node12&#45;&gt;node13 -->
<g id="edge29" class="edge">
<title>node12&#45;&gt;node13</title>
<path fill="none" stroke="black" stroke-dasharray="5,2" d="M2013.87,-489.43C2030.2,-464.46 2065.36,-410.68 2087.5,-376.82"/>
<polygon fill="black" stroke="black" points="2090.56,-378.54 2093.1,-368.25 2084.7,-374.71 2090.56,-378.54"/>
</g>
<!-- node13&#45;&gt;node3 -->
<g id="edge23" class="edge">
<title>node13&#45;&gt;node3</title>
<path fill="none" stroke="black" d="M2077.97,-327.6C2059.27,-316.27 2034.52,-301.03 2013,-287 1859.34,-186.81 1839.27,-125.02 1667,-62 1634.89,-50.25 1597.76,-40.74 1568,-34.05"/>
<polygon fill="black" stroke="black" points="1568.73,-30.62 1558.21,-31.89 1567.22,-37.46 1568.73,-30.62"/>
</g>
<!-- node13&#45;&gt;node5 -->
<g id="edge25" class="edge">
<title>node13&#45;&gt;node5</title>
<path fill="none" stroke="black" d="M2076.26,-328.2C2060.9,-318.23 2043.41,-304.17 2033,-287 2020.06,-265.65 2015.56,-237.53 2014.16,-216.22"/>
<polygon fill="black" stroke="black" points="2017.64,-215.89 2013.68,-206.07 2010.65,-216.22 2017.64,-215.89"/>
</g>
<!-- node13&#45;&gt;node11 -->
<g id="edge24" class="edge">
<title>node13&#45;&gt;node11</title>
<path fill="none" stroke="black" d="M2071.21,-330.51C2063.95,-328.01 2056.31,-325.68 2049,-324 1895.26,-288.67 1845.84,-336.31 1696,-287 1576.02,-247.52 1570.68,-183.38 1451,-143 1357.72,-111.53 1241.86,-104.79 1176.7,-103.72"/>
<polygon fill="black" stroke="black" points="1176.73,-100.22 1166.69,-103.6 1176.64,-107.22 1176.73,-100.22"/>
</g>
<!-- node14 -->
<g id="node23" class="node">
<title>node14</title>
<polygon fill="white" stroke="black" points="2169.94,-257.54 2169.94,-272.46 2133.65,-283 2082.35,-283 2046.06,-272.46 2046.06,-257.54 2082.35,-247 2133.65,-247 2169.94,-257.54"/>
<polygon fill="none" stroke="black" points="2173.93,-254.54 2173.93,-275.46 2134.22,-287 2081.78,-287 2042.07,-275.46 2042.07,-254.54 2081.78,-243 2134.22,-243 2173.93,-254.54"/>
<text text-anchor="middle" x="2108" y="-261.9" font-family="Times New Roman,serif" font-size="12.00">Qt5::QmlModels</text>
</g>
<!-- node13&#45;&gt;node14 -->
<g id="edge28" class="edge">
<title>node13&#45;&gt;node14</title>
<path fill="none" stroke="black" d="M2107.27,-323.83C2107.37,-315.68 2107.49,-306.2 2107.6,-297.3"/>
<polygon fill="black" stroke="black" points="2111.1,-297.27 2107.73,-287.23 2104.1,-297.18 2111.1,-297.27"/>
</g>
<!-- node14&#45;&gt;node3 -->
<g id="edge26" class="edge">
<title>node14&#45;&gt;node3</title>
<path fill="none" stroke="black" d="M2104.04,-242.72C2095.71,-204.2 2072.63,-123 2020,-81 1951.44,-26.28 1685.58,-21.51 1568.68,-22.16"/>
<polygon fill="black" stroke="black" points="1568.49,-18.66 1558.52,-22.23 1568.54,-25.66 1568.49,-18.66"/>
</g>
<!-- node14&#45;&gt;node5 -->
<g id="edge27" class="edge">
<title>node14&#45;&gt;node5</title>
<path fill="none" stroke="black" d="M2082.81,-242.83C2070.94,-232.86 2056.69,-220.88 2044.25,-210.42"/>
<polygon fill="black" stroke="black" points="2046.28,-207.56 2036.37,-203.8 2041.78,-212.92 2046.28,-207.56"/>
</g>
<!-- node16 -->
<g id="node25" class="node">
<title>node16</title>
<polygon fill="white" stroke="black" points="1779.75,-419.54 1779.75,-434.46 1735.96,-445 1674.04,-445 1630.25,-434.46 1630.25,-419.54 1674.04,-409 1735.96,-409 1779.75,-419.54"/>
<polygon fill="none" stroke="black" points="1783.75,-416.39 1783.75,-437.61 1736.44,-449 1673.56,-449 1626.25,-437.61 1626.25,-416.39 1673.56,-405 1736.44,-405 1783.75,-416.39"/>
<text text-anchor="middle" x="1705" y="-423.9" font-family="Times New Roman,serif" font-size="12.00">Qt5::QuickControls2</text>
</g>
<!-- node15&#45;&gt;node16 -->
<g id="edge34" class="edge">
<title>node15&#45;&gt;node16</title>
<path fill="none" stroke="black" stroke-dasharray="5,2" d="M1727.05,-489.24C1723.95,-480.63 1719.83,-469.18 1715.98,-458.51"/>
<polygon fill="black" stroke="black" points="1719.25,-457.26 1712.57,-449.04 1712.67,-459.63 1719.25,-457.26"/>
</g>
<!-- node16&#45;&gt;node3 -->
<g id="edge31" class="edge">
<title>node16&#45;&gt;node3</title>
<path fill="none" stroke="black" d="M1673.55,-404.96C1656.55,-390.86 1639,-370.59 1639,-347 1639,-347 1639,-347 1639,-102 1639,-66.16 1601.96,-45.96 1568.05,-34.98"/>
<polygon fill="black" stroke="black" points="1568.72,-31.53 1558.13,-31.99 1566.7,-38.23 1568.72,-31.53"/>
</g>
<!-- node16&#45;&gt;node11 -->
<g id="edge32" class="edge">
<title>node16&#45;&gt;node11</title>
<path fill="none" stroke="black" d="M1662.26,-407.69C1650.65,-401.84 1638.42,-394.83 1628,-387 1518.64,-304.83 1537.52,-228.53 1418,-162 1341.37,-119.34 1238.04,-107.75 1177.07,-104.79"/>
<polygon fill="black" stroke="black" points="1177.07,-101.28 1166.93,-104.35 1176.77,-108.28 1177.07,-101.28"/>
</g>
<!-- node16&#45;&gt;node13 -->
<g id="edge33" class="edge">
<title>node16&#45;&gt;node13</title>
<path fill="none" stroke="black" d="M1783.73,-416.84C1854.01,-407.69 1959.38,-391.57 2049,-368 2053.02,-366.94 2057.15,-365.72 2061.28,-364.42"/>
<polygon fill="black" stroke="black" points="2062.43,-367.72 2070.81,-361.24 2060.21,-361.08 2062.43,-367.72"/>
</g>
<!-- node18 -->
<g id="node27" class="node">
<title>node18</title>
<polygon fill="white" stroke="black" points="1360.15,-257.54 1360.15,-272.46 1338.39,-283 1307.61,-283 1285.85,-272.46 1285.85,-257.54 1307.61,-247 1338.39,-247 1360.15,-257.54"/>
<polygon fill="none" stroke="black" points="1364.13,-255.03 1364.13,-274.97 1339.3,-287 1306.7,-287 1281.87,-274.97 1281.87,-255.03 1306.7,-243 1339.3,-243 1364.13,-255.03"/>
<text text-anchor="middle" x="1323" y="-261.9" font-family="Times New Roman,serif" font-size="12.00">Qt5::Svg</text>
</g>
<!-- node17&#45;&gt;node18 -->
<g id="edge41" class="edge">
<title>node17&#45;&gt;node18</title>
<path fill="none" stroke="black" stroke-dasharray="5,2" d="M1237.61,-489.13C1240.58,-482.74 1244.07,-475.03 1247,-468 1271.96,-408.01 1297.98,-336.61 1312.17,-296.78"/>
<polygon fill="black" stroke="black" points="1315.55,-297.72 1315.59,-287.12 1308.95,-295.38 1315.55,-297.72"/>
</g>
<!-- node18&#45;&gt;node3 -->
<g id="edge36" class="edge">
<title>node18&#45;&gt;node3</title>
<path fill="none" stroke="black" d="M1354.61,-250.1C1374.67,-240.07 1400.11,-224.98 1418,-206 1460.58,-160.83 1489.06,-92.89 1503.01,-53.75"/>
<polygon fill="black" stroke="black" points="1506.35,-54.81 1506.32,-44.22 1499.73,-52.52 1506.35,-54.81"/>
</g>
<!-- node18&#45;&gt;node11 -->
<g id="edge37" class="edge">
<title>node18&#45;&gt;node11</title>
<path fill="none" stroke="black" d="M1310.8,-242.87C1291.71,-210.1 1256.06,-150.04 1247,-143 1226.81,-127.3 1200.12,-117.83 1176.94,-112.16"/>
<polygon fill="black" stroke="black" points="1177.43,-108.68 1166.91,-109.88 1175.88,-115.51 1177.43,-108.68"/>
</g>
<!-- node19 -->
<g id="node28" class="node">
<title>node19</title>
<polygon fill="white" stroke="black" points="1405.13,-176.54 1405.13,-191.46 1375.18,-202 1332.82,-202 1302.87,-191.46 1302.87,-176.54 1332.82,-166 1375.18,-166 1405.13,-176.54"/>
<polygon fill="none" stroke="black" points="1409.11,-173.71 1409.11,-194.29 1375.86,-206 1332.14,-206 1298.89,-194.29 1298.89,-173.71 1332.14,-162 1375.86,-162 1409.11,-173.71"/>
<text text-anchor="middle" x="1354" y="-180.9" font-family="Times New Roman,serif" font-size="12.00">Qt5::Widgets</text>
</g>
<!-- node18&#45;&gt;node19 -->
<g id="edge40" class="edge">
<title>node18&#45;&gt;node19</title>
<path fill="none" stroke="black" d="M1331.31,-242.83C1334.57,-234.51 1338.39,-224.79 1341.95,-215.72"/>
<polygon fill="black" stroke="black" points="1345.27,-216.82 1345.67,-206.23 1338.76,-214.26 1345.27,-216.82"/>
</g>
<!-- node19&#45;&gt;node3 -->
<g id="edge38" class="edge">
<title>node19&#45;&gt;node3</title>
<path fill="none" stroke="black" d="M1370.6,-161.71C1390.69,-136.57 1426.17,-94.13 1461,-62 1466.59,-56.84 1472.84,-51.7 1479.01,-46.92"/>
<polygon fill="black" stroke="black" points="1481.44,-49.48 1487.32,-40.66 1477.22,-43.89 1481.44,-49.48"/>
</g>
<!-- node19&#45;&gt;node11 -->
<g id="edge39" class="edge">
<title>node19&#45;&gt;node11</title>
<path fill="none" stroke="black" d="M1325.72,-164.16C1313.59,-156.73 1299,-148.64 1285,-143 1250.03,-128.91 1208.61,-118.95 1176.82,-112.63"/>
<polygon fill="black" stroke="black" points="1177.33,-109.16 1166.85,-110.7 1176,-116.03 1177.33,-109.16"/>
</g>
<!-- node21 -->
<g id="node30" class="node">
<title>node21</title>
<polygon fill="white" stroke="black" points="1540.78,-419.54 1540.78,-434.46 1518.06,-445 1485.94,-445 1463.22,-434.46 1463.22,-419.54 1485.94,-409 1518.06,-409 1540.78,-419.54"/>
<polygon fill="none" stroke="black" points="1544.79,-416.99 1544.79,-437.01 1518.95,-449 1485.05,-449 1459.21,-437.01 1459.21,-416.99 1485.05,-405 1518.95,-405 1544.79,-416.99"/>
<text text-anchor="middle" x="1502" y="-423.9" font-family="Times New Roman,serif" font-size="12.00">Qt5::Xml</text>
</g>
<!-- node20&#45;&gt;node21 -->
<g id="edge44" class="edge">
<title>node20&#45;&gt;node21</title>
<path fill="none" stroke="black" stroke-dasharray="5,2" d="M1478.32,-489.24C1481.65,-480.63 1486.08,-469.18 1490.2,-458.51"/>
<polygon fill="black" stroke="black" points="1493.52,-459.63 1493.87,-449.04 1486.99,-457.1 1493.52,-459.63"/>
</g>
<!-- node21&#45;&gt;node3 -->
<g id="edge43" class="edge">
<title>node21&#45;&gt;node3</title>
<path fill="none" stroke="black" d="M1502.87,-404.73C1505.11,-348.78 1511.03,-192.87 1513,-63 1513.04,-60.23 1513.07,-57.35 1513.09,-54.47"/>
<polygon fill="black" stroke="black" points="1516.59,-54.19 1513.12,-44.18 1509.59,-54.16 1516.59,-54.19"/>
</g>
<!-- node22&#45;&gt;node2 -->
<g id="edge48" class="edge">
<title>node22&#45;&gt;node2</title>
<path fill="none" stroke="black" stroke-dasharray="1,5" d="M1293.17,-569.19C1303.53,-565.47 1314.55,-561.83 1325,-559 1369.01,-547.08 1381.19,-549.43 1426,-541 1468.75,-532.96 1479.56,-531.5 1522,-522 1530.8,-520.03 1540.2,-517.78 1549.12,-515.57"/>
<polygon fill="black" stroke="black" points="1550.08,-518.94 1558.93,-513.11 1548.38,-512.15 1550.08,-518.94"/>
</g>
<!-- node22&#45;&gt;node4 -->
<g id="edge50" class="edge">
<title>node22&#45;&gt;node4</title>
<path fill="none" stroke="black" stroke-dasharray="1,5" d="M1291.7,-568.65C1302.42,-564.81 1313.97,-561.26 1325,-559 1478.03,-527.66 1520.43,-555.09 1676,-541 1741.17,-535.1 1758.31,-537.02 1822,-522 1826.84,-520.86 1831.87,-519.42 1836.79,-517.86"/>
<polygon fill="black" stroke="black" points="1838.25,-521.06 1846.61,-514.56 1836.02,-514.43 1838.25,-521.06"/>
</g>
<!-- node22&#45;&gt;node9 -->
<g id="edge47" class="edge">
<title>node22&#45;&gt;node9</title>
<path fill="none" stroke="black" d="M1271.13,-562.45C1281.79,-551.29 1294.23,-538.27 1304.56,-527.45"/>
<polygon fill="black" stroke="black" points="1307.28,-529.67 1311.65,-520.02 1302.22,-524.84 1307.28,-529.67"/>
</g>
<!-- node22&#45;&gt;node10 -->
<g id="edge49" class="edge">
<title>node22&#45;&gt;node10</title>
<path fill="none" stroke="black" stroke-dasharray="1,5" d="M1198.61,-569.97C1167.01,-558.16 1131.19,-544.22 1129,-541 1126.97,-538.01 1125.91,-534.54 1125.48,-530.96"/>
<polygon fill="black" stroke="black" points="1128.98,-530.92 1125.67,-520.86 1121.98,-530.79 1128.98,-530.92"/>
</g>
<!-- node22&#45;&gt;node17 -->
<g id="edge51" class="edge">
<title>node22&#45;&gt;node17</title>
<path fill="none" stroke="black" stroke-dasharray="1,5" d="M1242.11,-562.45C1240.18,-552.44 1237.95,-540.93 1236,-530.86"/>
<polygon fill="black" stroke="black" points="1239.43,-530.16 1234.1,-521 1232.56,-531.49 1239.43,-530.16"/>
</g>
<!-- node22&#45;&gt;node20 -->
<g id="edge52" class="edge">
<title>node22&#45;&gt;node20</title>
<path fill="none" stroke="black" stroke-dasharray="1,5" d="M1295.26,-569.93C1305.1,-566.3 1315.38,-562.53 1325,-559 1363.76,-544.79 1408.26,-528.57 1438.26,-517.64"/>
<polygon fill="black" stroke="black" points="1439.65,-520.86 1447.85,-514.15 1437.26,-514.28 1439.65,-520.86"/>
</g>
<!-- node23&#45;&gt;node2 -->
<g id="edge55" class="edge">
<title>node23&#45;&gt;node2</title>
<path fill="none" stroke="black" stroke-dasharray="1,5" d="M1137.01,-568.77C1147.37,-565.02 1158.44,-561.48 1169,-559 1245.78,-540.96 1444.33,-535.71 1522,-522 1531.24,-520.37 1541.08,-518.18 1550.33,-515.91"/>
<polygon fill="black" stroke="black" points="1551.23,-519.29 1560.07,-513.45 1549.51,-512.51 1551.23,-519.29"/>
</g>
<!-- node23&#45;&gt;node4 -->
<g id="edge57" class="edge">
<title>node23&#45;&gt;node4</title>
<path fill="none" stroke="black" stroke-dasharray="1,5" d="M1136.11,-568.69C1146.71,-564.84 1158.11,-561.28 1169,-559 1311.25,-529.16 1679.42,-550.2 1822,-522 1827.11,-520.99 1832.42,-519.57 1837.57,-517.97"/>
<polygon fill="black" stroke="black" points="1838.82,-521.24 1847.19,-514.74 1836.6,-514.6 1838.82,-521.24"/>
</g>
<!-- node23&#45;&gt;node9 -->
<g id="edge54" class="edge">
<title>node23&#45;&gt;node9</title>
<path fill="none" stroke="black" d="M1139.16,-569.88C1149,-566.23 1159.32,-562.45 1169,-559 1217.19,-541.84 1229.66,-538.76 1278,-522 1282.25,-520.53 1286.71,-518.97 1291.12,-517.41"/>
<polygon fill="black" stroke="black" points="1292.35,-520.69 1300.61,-514.06 1290.02,-514.09 1292.35,-520.69"/>
</g>
<!-- node23&#45;&gt;node10 -->
<g id="edge56" class="edge">
<title>node23&#45;&gt;node10</title>
<path fill="none" stroke="black" stroke-dasharray="1,5" d="M1094.38,-562.21C1095.7,-554.8 1097.77,-546.87 1101,-540 1103.33,-535.04 1106.53,-530.19 1109.96,-525.76"/>
<polygon fill="black" stroke="black" points="1112.87,-527.74 1116.66,-517.84 1107.53,-523.22 1112.87,-527.74"/>
</g>
<!-- node23&#45;&gt;node17 -->
<g id="edge58" class="edge">
<title>node23&#45;&gt;node17</title>
<path fill="none" stroke="black" stroke-dasharray="1,5" d="M1128.88,-565.77C1152.28,-551.84 1182.06,-534.12 1203.42,-521.41"/>
<polygon fill="black" stroke="black" points="1205.49,-524.25 1212.3,-516.13 1201.91,-518.24 1205.49,-524.25"/>
</g>
<!-- node23&#45;&gt;node20 -->
<g id="edge59" class="edge">
<title>node23&#45;&gt;node20</title>
<path fill="none" stroke="black" stroke-dasharray="1,5" d="M1137.56,-569.17C1147.79,-565.45 1158.68,-561.82 1169,-559 1193.53,-552.31 1348.68,-525.87 1427.36,-512.64"/>
<polygon fill="black" stroke="black" points="1428.2,-516.05 1437.48,-510.94 1427.04,-509.14 1428.2,-516.05"/>
</g>
<!-- node25 -->
<g id="node34" class="node">
<title>node25</title>
<polygon fill="white" stroke="black" points="2436.07,-509.56 2364,-522 2291.93,-509.56 2319.46,-489.44 2408.54,-489.44 2436.07,-509.56"/>
<text text-anchor="middle" x="2364" y="-500.9" font-family="Times New Roman,serif" font-size="12.00">Threads::Threads</text>
</g>
<!-- node24&#45;&gt;node25 -->
<g id="edge69" class="edge">
<title>node24&#45;&gt;node25</title>
<path fill="none" stroke="black" d="M2450.25,-564.46C2432.07,-551.92 2409.88,-536.63 2392.56,-524.69"/>
<polygon fill="black" stroke="black" points="2394.22,-521.58 2384,-518.79 2390.25,-527.34 2394.22,-521.58"/>
</g>
<!-- node26 -->
<g id="node35" class="node">
<title>node26</title>
<polygon fill="white" stroke="black" points="1685,-757.67 1685,-779.24 1634.04,-794.5 1561.96,-794.5 1511,-779.24 1511,-757.67 1561.96,-742.41 1634.04,-742.41 1685,-757.67"/>
<text text-anchor="middle" x="1598" y="-771.86" font-family="Times New Roman,serif" font-size="12.00">QaterialHotReload</text>
<text text-anchor="middle" x="1598" y="-758.86" font-family="Times New Roman,serif" font-size="12.00">(Qaterial::HotReload)</text>
</g>
<!-- node26&#45;&gt;node1 -->
<g id="edge81" class="edge">
<title>node26&#45;&gt;node1</title>
<path fill="none" stroke="black" d="M1685.23,-764.79C1796.77,-760.47 1995.65,-749.72 2164,-724.43 2229.79,-714.55 2245.31,-706.94 2310,-691.43 2404.97,-668.67 2428.84,-663.34 2523,-637.43 2551.61,-629.56 2567.76,-641.03 2587,-618.43 2609.78,-591.68 2602.78,-574.66 2597,-540 2596.54,-537.24 2595.89,-534.41 2595.13,-531.61"/>
<polygon fill="black" stroke="black" points="2598.37,-530.27 2592.02,-521.8 2591.7,-532.39 2598.37,-530.27"/>
</g>
<!-- node26&#45;&gt;node2 -->
<g id="edge118" class="edge">
<title>node26&#45;&gt;node2</title>
<path fill="none" stroke="black" d="M1597.23,-742.29C1595.72,-692.81 1592.38,-583.22 1590.83,-532.16"/>
<polygon fill="black" stroke="black" points="1594.32,-531.8 1590.52,-521.91 1587.32,-532.02 1594.32,-531.8"/>
</g>
<!-- node26&#45;&gt;node4 -->
<g id="edge119" class="edge">
<title>node26&#45;&gt;node4</title>
<path fill="none" stroke="black" d="M1681.21,-756.53C1765.16,-741.85 1894.66,-708.83 1983,-637.43 2016.71,-610.19 2014.96,-564.19 1979,-540 1960.17,-527.33 1936.42,-518.98 1916,-513.62"/>
<polygon fill="black" stroke="black" points="1916.82,-510.22 1906.27,-511.23 1915.15,-517.02 1916.82,-510.22"/>
</g>
<!-- node26&#45;&gt;node7 -->
<g id="edge71" class="edge">
<title>node26&#45;&gt;node7</title>
<path fill="none" stroke="black" stroke-dasharray="1,5" d="M1644.47,-745.18C1679.41,-728.42 1726.5,-705.84 1757.99,-690.74"/>
<polygon fill="black" stroke="black" points="1759.72,-693.79 1767.23,-686.31 1756.7,-687.48 1759.72,-693.79"/>
</g>
<!-- node26&#45;&gt;node24 -->
<g id="edge128" class="edge">
<title>node26&#45;&gt;node24</title>
<path fill="none" stroke="black" d="M1685.32,-767.55C1790.23,-766.01 1970.98,-758.05 2122,-724.43 2236.56,-698.94 2363.68,-645.34 2432.64,-613.98"/>
<polygon fill="black" stroke="black" points="2434.34,-617.05 2441.97,-609.7 2431.42,-610.68 2434.34,-617.05"/>
</g>
<!-- node27 -->
<g id="node36" class="node">
<title>node27</title>
<polygon fill="white" stroke="black" points="1531.97,-577.93 1531.97,-599.51 1473.99,-614.76 1392.01,-614.76 1334.03,-599.51 1334.03,-577.93 1392.01,-562.67 1473.99,-562.67 1531.97,-577.93"/>
<text text-anchor="middle" x="1433" y="-592.12" font-family="Times New Roman,serif" font-size="12.00">QaterialHotReloadUi</text>
<text text-anchor="middle" x="1433" y="-579.12" font-family="Times New Roman,serif" font-size="12.00">(Qaterial::HotReload::Ui)</text>
</g>
<!-- node26&#45;&gt;node27 -->
<g id="edge80" class="edge">
<title>node26&#45;&gt;node27</title>
<path fill="none" stroke="black" stroke-dasharray="1,5" d="M1574.71,-742.37C1545.56,-710.96 1495.55,-657.1 1463.41,-622.47"/>
<polygon fill="black" stroke="black" points="1465.81,-619.91 1456.44,-614.97 1460.68,-624.68 1465.81,-619.91"/>
</g>
<!-- node28 -->
<g id="node37" class="node">
<title>node28</title>
<polygon fill="white" stroke="black" points="1048.53,-432.56 978,-445 907.47,-432.56 934.41,-412.44 1021.59,-412.44 1048.53,-432.56"/>
<text text-anchor="middle" x="978" y="-423.9" font-family="Times New Roman,serif" font-size="12.00">Qt::3DAnimation</text>
</g>
<!-- node26&#45;&gt;node28 -->
<g id="edge92" class="edge">
<title>node26&#45;&gt;node28</title>
<path fill="none" stroke="black" stroke-dasharray="1,5" d="M1519.57,-755.08C1433.87,-741.18 1292.68,-717.17 1172,-691.43 1092.72,-674.53 1074.78,-661.77 995,-647.43 975.41,-643.91 919.26,-652.27 906,-637.43 856.75,-582.34 922.03,-491.93 957.63,-450.28"/>
<polygon fill="black" stroke="black" points="960.37,-452.46 964.31,-442.63 955.1,-447.86 960.37,-452.46"/>
</g>
<!-- node32 -->
<g id="node41" class="node">
<title>node32</title>
<polygon fill="white" stroke="black" points="1289.05,-679 1235,-691.43 1180.95,-679 1201.6,-658.87 1268.4,-658.87 1289.05,-679"/>
<text text-anchor="middle" x="1235" y="-670.33" font-family="Times New Roman,serif" font-size="12.00">Qt::3DCore</text>
</g>
<!-- node26&#45;&gt;node32 -->
<g id="edge94" class="edge">
<title>node26&#45;&gt;node32</title>
<path fill="none" stroke="black" stroke-dasharray="1,5" d="M1533.38,-750.91C1502.15,-742.92 1464.12,-733.18 1430,-724.43 1378.61,-711.27 1319.61,-696.14 1280.09,-686"/>
<polygon fill="black" stroke="black" points="1280.78,-682.56 1270.23,-683.47 1279.04,-689.34 1280.78,-682.56"/>
</g>
<!-- node33 -->
<g id="node42" class="node">
<title>node33</title>
<polygon fill="white" stroke="black" points="764.66,-432.56 707,-445 649.34,-432.56 671.37,-412.44 742.63,-412.44 764.66,-432.56"/>
<text text-anchor="middle" x="707" y="-423.9" font-family="Times New Roman,serif" font-size="12.00">Qt::3DExtras</text>
</g>
<!-- node26&#45;&gt;node33 -->
<g id="edge111" class="edge">
<title>node26&#45;&gt;node33</title>
<path fill="none" stroke="black" stroke-dasharray="1,5" d="M1510.94,-767.37C1286.75,-766.01 707,-754.73 707,-674.43 707,-674.43 707,-674.43 707,-503 707,-487.23 707,-469.59 707,-455.38"/>
<polygon fill="black" stroke="black" points="710.5,-455.28 707,-445.28 703.5,-455.28 710.5,-455.28"/>
</g>
<!-- node38 -->
<g id="node47" class="node">
<title>node38</title>
<polygon fill="white" stroke="black" points="637.05,-679 583,-691.43 528.95,-679 549.6,-658.87 616.4,-658.87 637.05,-679"/>
<text text-anchor="middle" x="583" y="-670.33" font-family="Times New Roman,serif" font-size="12.00">Qt::3DInput</text>
</g>
<!-- node26&#45;&gt;node38 -->
<g id="edge113" class="edge">
<title>node26&#45;&gt;node38</title>
<path fill="none" stroke="black" stroke-dasharray="1,5" d="M1510.81,-767.49C1315.18,-766.89 846.37,-761.49 693,-724.43 664.4,-717.52 634.12,-703.18 612.59,-691.62"/>
<polygon fill="black" stroke="black" points="614.09,-688.45 603.64,-686.7 610.72,-694.58 614.09,-688.45"/>
</g>
<!-- node39 -->
<g id="node48" class="node">
<title>node39</title>
<polygon fill="white" stroke="black" points="846.59,-679 791,-691.43 735.41,-679 756.64,-658.87 825.36,-658.87 846.59,-679"/>
<text text-anchor="middle" x="791" y="-670.33" font-family="Times New Roman,serif" font-size="12.00">Qt::3DLogic</text>
</g>
<!-- node26&#45;&gt;node39 -->
<g id="edge115" class="edge">
<title>node26&#45;&gt;node39</title>
<path fill="none" stroke="black" stroke-dasharray="1,5" d="M1510.96,-767.19C1388.78,-765.52 1159.86,-757.71 968,-724.43 919.69,-716.05 865.65,-699.74 830.13,-688.02"/>
<polygon fill="black" stroke="black" points="831.22,-684.69 820.63,-684.85 829.01,-691.33 831.22,-684.69"/>
</g>
<!-- node40 -->
<g id="node49" class="node">
<title>node40</title>
<polygon fill="white" stroke="black" points="985.75,-679 925,-691.43 864.25,-679 887.46,-658.87 962.54,-658.87 985.75,-679"/>
<text text-anchor="middle" x="925" y="-670.33" font-family="Times New Roman,serif" font-size="12.00">Qt::3DRender</text>
</g>
<!-- node26&#45;&gt;node40 -->
<g id="edge117" class="edge">
<title>node26&#45;&gt;node40</title>
<path fill="none" stroke="black" stroke-dasharray="1,5" d="M1510.87,-766.63C1368.35,-764.37 1092.01,-755.94 1000,-724.43 981.24,-718.01 962.68,-705.7 948.71,-694.9"/>
<polygon fill="black" stroke="black" points="950.64,-691.96 940.65,-688.44 946.27,-697.42 950.64,-691.96"/>
</g>
<!-- node41 -->
<g id="node50" class="node">
<title>node41</title>
<polygon fill="white" stroke="black" points="2040.01,-351.56 1970,-364 1899.99,-351.56 1926.73,-331.44 2013.27,-331.44 2040.01,-351.56"/>
<text text-anchor="middle" x="1970" y="-342.9" font-family="Times New Roman,serif" font-size="12.00">Qt::WebChannel</text>
</g>
<!-- node26&#45;&gt;node41 -->
<g id="edge123" class="edge">
<title>node26&#45;&gt;node41</title>
<path fill="none" stroke="black" stroke-dasharray="1,5" d="M1685.35,-764.99C1760.04,-759.2 1867.71,-741.83 1947,-691.43 1984.68,-667.49 1991.06,-655.46 2016,-618.43 2050.64,-566.99 2077.58,-545.48 2060,-486 2046.47,-440.22 2012.64,-395.36 1990.52,-369.48"/>
<polygon fill="black" stroke="black" points="1993.01,-367 1983.8,-361.76 1987.73,-371.6 1993.01,-367"/>
</g>
<!-- node43 -->
<g id="node52" class="node">
<title>node43</title>
<polygon fill="white" stroke="black" points="2572.01,-270.56 2502,-283 2431.99,-270.56 2458.73,-250.44 2545.27,-250.44 2572.01,-270.56"/>
<text text-anchor="middle" x="2502" y="-261.9" font-family="Times New Roman,serif" font-size="12.00">Qt::WebSockets</text>
</g>
<!-- node26&#45;&gt;node43 -->
<g id="edge127" class="edge">
<title>node26&#45;&gt;node43</title>
<path fill="none" stroke="black" stroke-dasharray="1,5" d="M1685.47,-765.42C1966.48,-758.3 2828,-731.79 2828,-674.43 2828,-674.43 2828,-674.43 2828,-467 2828,-344.47 2659.07,-294.19 2564.42,-275.64"/>
<polygon fill="black" stroke="black" points="2564.85,-272.16 2554.38,-273.73 2563.55,-279.03 2564.85,-272.16"/>
</g>
<!-- node27&#45;&gt;node2 -->
<g id="edge73" class="edge">
<title>node27&#45;&gt;node2</title>
<path fill="none" stroke="black" stroke-dasharray="1,5" d="M1478.41,-563.79C1504.68,-549.95 1536.99,-532.93 1560.08,-520.77"/>
<polygon fill="black" stroke="black" points="1561.84,-523.79 1569.05,-516.04 1558.57,-517.6 1561.84,-523.79"/>
</g>
<!-- node27&#45;&gt;node4 -->
<g id="edge75" class="edge">
<title>node27&#45;&gt;node4</title>
<path fill="none" stroke="black" stroke-dasharray="1,5" d="M1517.83,-574.16C1623.31,-557.17 1793.1,-529.4 1822,-522 1826.76,-520.78 1831.73,-519.31 1836.59,-517.74"/>
<polygon fill="black" stroke="black" points="1837.96,-520.97 1846.32,-514.46 1835.72,-514.34 1837.96,-520.97"/>
</g>
<!-- node27&#45;&gt;node9 -->
<g id="edge72" class="edge">
<title>node27&#45;&gt;node9</title>
<path fill="none" stroke="black" d="M1400.61,-562.67C1384.87,-550.51 1366.24,-536.11 1351.53,-524.73"/>
<polygon fill="black" stroke="black" points="1353.42,-521.78 1343.37,-518.43 1349.14,-527.32 1353.42,-521.78"/>
</g>
<!-- node27&#45;&gt;node10 -->
<g id="edge74" class="edge">
<title>node27&#45;&gt;node10</title>
<path fill="none" stroke="black" stroke-dasharray="1,5" d="M1366.95,-569.26C1353.14,-565.65 1338.63,-562.05 1325,-559 1281.36,-549.25 1269.11,-552.9 1226,-541 1204.04,-534.94 1180.04,-525.94 1161.53,-518.45"/>
<polygon fill="black" stroke="black" points="1162.71,-515.15 1152.13,-514.59 1160.05,-521.63 1162.71,-515.15"/>
</g>
<!-- node27&#45;&gt;node12 -->
<g id="edge76" class="edge">
<title>node27&#45;&gt;node12</title>
<path fill="none" stroke="black" stroke-dasharray="1,5" d="M1517.19,-573.97C1548.49,-569.02 1584.34,-563.54 1617,-559 1751.37,-540.31 1786.05,-543.54 1920,-522 1933.01,-519.91 1947.07,-517.26 1959.94,-514.67"/>
<polygon fill="black" stroke="black" points="1960.86,-518.06 1969.96,-512.63 1959.46,-511.2 1960.86,-518.06"/>
</g>
<!-- node27&#45;&gt;node15 -->
<g id="edge77" class="edge">
<title>node27&#45;&gt;node15</title>
<path fill="none" stroke="black" stroke-dasharray="1,5" d="M1499.73,-569.26C1555.12,-553.93 1632.65,-532.49 1682.6,-518.67"/>
<polygon fill="black" stroke="black" points="1683.81,-521.96 1692.51,-515.92 1681.94,-515.22 1683.81,-521.96"/>
</g>
<!-- node27&#45;&gt;node17 -->
<g id="edge78" class="edge">
<title>node27&#45;&gt;node17</title>
<path fill="none" stroke="black" stroke-dasharray="1,5" d="M1379.66,-565.88C1342.85,-550.8 1295.08,-531.24 1263.76,-518.42"/>
<polygon fill="black" stroke="black" points="1264.79,-515.05 1254.2,-514.5 1262.13,-521.53 1264.79,-515.05"/>
</g>
<!-- node27&#45;&gt;node20 -->
<g id="edge79" class="edge">
<title>node27&#45;&gt;node20</title>
<path fill="none" stroke="black" stroke-dasharray="1,5" d="M1445.22,-562.45C1450.36,-551.83 1456.3,-539.53 1461.37,-529.04"/>
<polygon fill="black" stroke="black" points="1464.53,-530.55 1465.74,-520.02 1458.23,-527.5 1464.53,-530.55"/>
</g>
<!-- node29 -->
<g id="node38" class="node">
<title>node29</title>
<polygon fill="white" stroke="black" points="1146.93,-338.54 1146.93,-353.46 1108.31,-364 1053.69,-364 1015.07,-353.46 1015.07,-338.54 1053.69,-328 1108.31,-328 1146.93,-338.54"/>
<polygon fill="none" stroke="black" points="1150.93,-335.49 1150.93,-356.51 1108.85,-368 1053.15,-368 1011.07,-356.51 1011.07,-335.49 1053.15,-324 1108.85,-324 1150.93,-335.49"/>
<text text-anchor="middle" x="1081" y="-342.9" font-family="Times New Roman,serif" font-size="12.00">Qt5::3DAnimation</text>
</g>
<!-- node28&#45;&gt;node29 -->
<g id="edge91" class="edge">
<title>node28&#45;&gt;node29</title>
<path fill="none" stroke="black" stroke-dasharray="5,2" d="M995.94,-412.24C1009.61,-401.75 1028.87,-386.98 1045.61,-374.15"/>
<polygon fill="black" stroke="black" points="1047.78,-376.89 1053.58,-368.03 1043.52,-371.34 1047.78,-376.89"/>
</g>
<!-- node29&#45;&gt;node3 -->
<g id="edge89" class="edge">
<title>node29&#45;&gt;node3</title>
<path fill="none" stroke="black" d="M1102.03,-323.83C1150.64,-275.77 1275.98,-156.71 1398,-81 1421.28,-66.56 1448.61,-52.66 1470.79,-42.09"/>
<polygon fill="black" stroke="black" points="1472.39,-45.2 1479.95,-37.77 1469.41,-38.87 1472.39,-45.2"/>
</g>
<!-- node29&#45;&gt;node11 -->
<g id="edge90" class="edge">
<title>node29&#45;&gt;node11</title>
<path fill="none" stroke="black" d="M1085.34,-323.95C1086.53,-318.14 1087.82,-311.83 1089,-306 1098,-261.58 1100.83,-250.58 1109,-206 1113.35,-182.24 1117.83,-155.28 1121.09,-135.05"/>
<polygon fill="black" stroke="black" points="1124.55,-135.56 1122.68,-125.13 1117.64,-134.45 1124.55,-135.56"/>
</g>
<!-- node30 -->
<g id="node39" class="node">
<title>node30</title>
<polygon fill="white" stroke="black" points="1096.13,-176.54 1096.13,-191.46 1066.18,-202 1023.82,-202 993.87,-191.46 993.87,-176.54 1023.82,-166 1066.18,-166 1096.13,-176.54"/>
<polygon fill="none" stroke="black" points="1100.11,-173.71 1100.11,-194.29 1066.86,-206 1023.14,-206 989.89,-194.29 989.89,-173.71 1023.14,-162 1066.86,-162 1100.11,-173.71"/>
<text text-anchor="middle" x="1045" y="-180.9" font-family="Times New Roman,serif" font-size="12.00">Qt5::3DCore</text>
</g>
<!-- node29&#45;&gt;node30 -->
<g id="edge85" class="edge">
<title>node29&#45;&gt;node30</title>
<path fill="none" stroke="black" d="M1077.49,-323.87C1073.3,-299.6 1065.75,-258.68 1057,-224 1056.34,-221.39 1055.61,-218.69 1054.85,-215.99"/>
<polygon fill="black" stroke="black" points="1058.19,-214.94 1052,-206.34 1051.48,-216.93 1058.19,-214.94"/>
</g>
<!-- node31 -->
<g id="node40" class="node">
<title>node31</title>
<polygon fill="white" stroke="black" points="1011.12,-257.54 1011.12,-272.46 977.66,-283 930.34,-283 896.88,-272.46 896.88,-257.54 930.34,-247 977.66,-247 1011.12,-257.54"/>
<polygon fill="none" stroke="black" points="1015.11,-254.61 1015.11,-275.39 978.27,-287 929.73,-287 892.89,-275.39 892.89,-254.61 929.73,-243 978.27,-243 1015.11,-254.61"/>
<text text-anchor="middle" x="954" y="-261.9" font-family="Times New Roman,serif" font-size="12.00">Qt5::3DRender</text>
</g>
<!-- node29&#45;&gt;node31 -->
<g id="edge88" class="edge">
<title>node29&#45;&gt;node31</title>
<path fill="none" stroke="black" d="M1048.95,-325.06C1032.03,-314.54 1011.12,-301.53 993.23,-290.4"/>
<polygon fill="black" stroke="black" points="995.06,-287.42 984.72,-285.11 991.37,-293.37 995.06,-287.42"/>
</g>
<!-- node30&#45;&gt;node3 -->
<g id="edge82" class="edge">
<title>node30&#45;&gt;node3</title>
<path fill="none" stroke="black" d="M1045.32,-161.66C1046.89,-138.32 1053.14,-101.53 1076,-81 1131.11,-31.51 1352.69,-23.7 1457.52,-22.84"/>
<polygon fill="black" stroke="black" points="1457.61,-26.34 1467.59,-22.77 1457.57,-19.34 1457.61,-26.34"/>
</g>
<!-- node30&#45;&gt;node6 -->
<g id="edge84" class="edge">
<title>node30&#45;&gt;node6</title>
<path fill="none" stroke="black" d="M1100.42,-178.06C1255.79,-164.2 1695.18,-125.03 1863.89,-109.98"/>
<polygon fill="black" stroke="black" points="1864.23,-113.47 1873.88,-109.09 1863.61,-106.49 1864.23,-113.47"/>
</g>
<!-- node30&#45;&gt;node11 -->
<g id="edge83" class="edge">
<title>node30&#45;&gt;node11</title>
<path fill="none" stroke="black" d="M1066.71,-161.83C1076.59,-152.19 1088.38,-140.69 1098.84,-130.49"/>
<polygon fill="black" stroke="black" points="1101.46,-132.82 1106.18,-123.33 1096.57,-127.81 1101.46,-132.82"/>
</g>
<!-- node31&#45;&gt;node3 -->
<g id="edge87" class="edge">
<title>node31&#45;&gt;node3</title>
<path fill="none" stroke="black" d="M956.89,-242.72C960.4,-221.39 967.6,-188.07 981,-162 1002.36,-120.45 1009.46,-107.41 1048,-81 1113.42,-36.17 1348.89,-25.98 1457.46,-23.67"/>
<polygon fill="black" stroke="black" points="1457.63,-27.17 1467.56,-23.47 1457.49,-20.17 1457.63,-27.17"/>
</g>
<!-- node31&#45;&gt;node30 -->
<g id="edge86" class="edge">
<title>node31&#45;&gt;node30</title>
<path fill="none" stroke="black" d="M978.39,-242.83C989.17,-233.47 1001.98,-222.35 1013.47,-212.37"/>
<polygon fill="black" stroke="black" points="1015.92,-214.88 1021.18,-205.68 1011.33,-209.59 1015.92,-214.88"/>
</g>
<!-- node32&#45;&gt;node30 -->
<g id="edge93" class="edge">
<title>node32&#45;&gt;node30</title>
<path fill="none" stroke="black" stroke-dasharray="5,2" d="M1194.99,-665.22C1125.61,-652.51 989.69,-626.71 983,-618.43 909,-526.9 1089.74,-547.19 1160,-368 1183.82,-307.25 1122.21,-244.59 1080.24,-210.64"/>
<polygon fill="black" stroke="black" points="1082.16,-207.7 1072.14,-204.25 1077.82,-213.19 1082.16,-207.7"/>
</g>
<!-- node34 -->
<g id="node43" class="node">
<title>node34</title>
<polygon fill="white" stroke="black" points="761.77,-338.54 761.77,-353.46 729.68,-364 684.32,-364 652.23,-353.46 652.23,-338.54 684.32,-328 729.68,-328 761.77,-338.54"/>
<polygon fill="none" stroke="black" points="765.77,-335.65 765.77,-356.35 730.33,-368 683.67,-368 648.23,-356.35 648.23,-335.65 683.67,-324 730.33,-324 765.77,-335.65"/>
<text text-anchor="middle" x="707" y="-342.9" font-family="Times New Roman,serif" font-size="12.00">Qt5::3DExtras</text>
</g>
<!-- node33&#45;&gt;node34 -->
<g id="edge110" class="edge">
<title>node33&#45;&gt;node34</title>
<path fill="none" stroke="black" stroke-dasharray="5,2" d="M707,-412.24C707,-402.8 707,-389.89 707,-378.05"/>
<polygon fill="black" stroke="black" points="710.5,-378.03 707,-368.03 703.5,-378.03 710.5,-378.03"/>
</g>
<!-- node34&#45;&gt;node3 -->
<g id="edge108" class="edge">
<title>node34&#45;&gt;node3</title>
<path fill="none" stroke="black" d="M648.44,-335.53C610.07,-325.6 567,-305.63 567,-266 567,-266 567,-266 567,-102 567,-57.02 1255.07,-31.3 1457.57,-24.71"/>
<polygon fill="black" stroke="black" points="1457.81,-28.2 1467.69,-24.38 1457.58,-21.2 1457.81,-28.2"/>
</g>
<!-- node34&#45;&gt;node11 -->
<g id="edge109" class="edge">
<title>node34&#45;&gt;node11</title>
<path fill="none" stroke="black" d="M711.18,-323.78C716.74,-300.9 728.7,-264.84 752,-243 786.87,-210.3 809.24,-225.25 853,-206 891.94,-188.87 898.63,-178.11 938,-162 983.99,-143.18 1038.44,-127.01 1076.86,-116.57"/>
<polygon fill="black" stroke="black" points="1078.02,-119.88 1086.77,-113.91 1076.2,-113.12 1078.02,-119.88"/>
</g>
<!-- node34&#45;&gt;node30 -->
<g id="edge95" class="edge">
<title>node34&#45;&gt;node30</title>
<path fill="none" stroke="black" d="M765.73,-341.94C847.09,-336.46 988.15,-322.06 1024,-287 1042.52,-268.88 1046.89,-239.09 1047.14,-216.36"/>
<polygon fill="black" stroke="black" points="1050.64,-216.12 1046.99,-206.17 1043.64,-216.22 1050.64,-216.12"/>
</g>
<!-- node34&#45;&gt;node31 -->
<g id="edge107" class="edge">
<title>node34&#45;&gt;node31</title>
<path fill="none" stroke="black" d="M751.44,-330.79C792.76,-317.57 854.45,-297.84 898.89,-283.63"/>
<polygon fill="black" stroke="black" points="900.2,-286.88 908.66,-280.5 898.07,-280.21 900.2,-286.88"/>
</g>
<!-- node35 -->
<g id="node44" class="node">
<title>node35</title>
<polygon fill="white" stroke="black" points="701.13,-257.54 701.13,-272.46 671.18,-283 628.82,-283 598.87,-272.46 598.87,-257.54 628.82,-247 671.18,-247 701.13,-257.54"/>
<polygon fill="none" stroke="black" points="705.11,-254.71 705.11,-275.29 671.86,-287 628.14,-287 594.89,-275.29 594.89,-254.71 628.14,-243 671.86,-243 705.11,-254.71"/>
<text text-anchor="middle" x="650" y="-261.9" font-family="Times New Roman,serif" font-size="12.00">Qt5::3DInput</text>
</g>
<!-- node34&#45;&gt;node35 -->
<g id="edge102" class="edge">
<title>node34&#45;&gt;node35</title>
<path fill="none" stroke="black" d="M691.73,-323.83C685.46,-315.15 678.11,-304.96 671.33,-295.56"/>
<polygon fill="black" stroke="black" points="674.01,-293.29 665.32,-287.23 668.33,-297.39 674.01,-293.29"/>
</g>
<!-- node37 -->
<g id="node46" class="node">
<title>node37</title>
<polygon fill="white" stroke="black" points="870.77,-257.54 870.77,-272.46 839.86,-283 796.14,-283 765.23,-272.46 765.23,-257.54 796.14,-247 839.86,-247 870.77,-257.54"/>
<polygon fill="none" stroke="black" points="874.78,-254.68 874.78,-275.32 840.52,-287 795.48,-287 761.22,-275.32 761.22,-254.68 795.48,-243 840.52,-243 874.78,-254.68"/>
<text text-anchor="middle" x="818" y="-261.9" font-family="Times New Roman,serif" font-size="12.00">Qt5::3DLogic</text>
</g>
<!-- node34&#45;&gt;node37 -->
<g id="edge106" class="edge">
<title>node34&#45;&gt;node37</title>
<path fill="none" stroke="black" d="M734.72,-325.27C749.14,-315.01 766.91,-302.36 782.34,-291.38"/>
<polygon fill="black" stroke="black" points="784.51,-294.13 790.63,-285.48 780.45,-288.43 784.51,-294.13"/>
</g>
<!-- node35&#45;&gt;node3 -->
<g id="edge97" class="edge">
<title>node35&#45;&gt;node3</title>
<path fill="none" stroke="black" d="M646.62,-242.99C644.15,-221.58 643.04,-187.92 655,-162 686.57,-93.55 718.2,-77.37 792,-62 918.89,-35.57 1311.22,-26.39 1457.38,-23.84"/>
<polygon fill="black" stroke="black" points="1457.53,-27.34 1467.47,-23.67 1457.41,-20.34 1457.53,-27.34"/>
</g>
<!-- node35&#45;&gt;node11 -->
<g id="edge101" class="edge">
<title>node35&#45;&gt;node11</title>
<path fill="none" stroke="black" d="M688.07,-248.54C716.49,-236.96 756.24,-220.65 791,-206 856.13,-178.56 869.6,-164.25 937,-143 982.9,-128.53 1036.81,-118.02 1075.28,-111.58"/>
<polygon fill="black" stroke="black" points="1075.9,-115.02 1085.2,-109.95 1074.77,-108.11 1075.9,-115.02"/>
</g>
<!-- node35&#45;&gt;node30 -->
<g id="edge96" class="edge">
<title>node35&#45;&gt;node30</title>
<path fill="none" stroke="black" d="M701.35,-253.35C717.55,-250.01 735.52,-246.33 752,-243 831.52,-226.94 923.28,-208.85 982.61,-197.21"/>
<polygon fill="black" stroke="black" points="983.44,-200.61 992.58,-195.25 982.09,-193.74 983.44,-200.61"/>
</g>
<!-- node36 -->
<g id="node45" class="node">
<title>node36</title>
<polygon fill="white" stroke="black" points="778.12,-176.54 778.12,-191.46 745.83,-202 700.17,-202 667.88,-191.46 667.88,-176.54 700.17,-166 745.83,-166 778.12,-176.54"/>
<polygon fill="none" stroke="black" points="782.11,-173.64 782.11,-194.36 746.46,-206 699.54,-206 663.89,-194.36 663.89,-173.64 699.54,-162 746.46,-162 782.11,-173.64"/>
<text text-anchor="middle" x="723" y="-180.9" font-family="Times New Roman,serif" font-size="12.00">Qt5::Gamepad</text>
</g>
<!-- node35&#45;&gt;node36 -->
<g id="edge100" class="edge">
<title>node35&#45;&gt;node36</title>
<path fill="none" stroke="black" d="M669.56,-242.83C677.83,-233.89 687.58,-223.33 696.48,-213.7"/>
<polygon fill="black" stroke="black" points="699.17,-215.95 703.38,-206.23 694.03,-211.2 699.17,-215.95"/>
</g>
<!-- node36&#45;&gt;node3 -->
<g id="edge98" class="edge">
<title>node36&#45;&gt;node3</title>
<path fill="none" stroke="black" d="M728.93,-161.93C738.13,-133.65 758.78,-84.37 796,-62 852.13,-28.26 1299.22,-23.63 1457.61,-23.06"/>
<polygon fill="black" stroke="black" points="1457.63,-26.56 1467.62,-23.03 1457.61,-19.56 1457.63,-26.56"/>
</g>
<!-- node36&#45;&gt;node11 -->
<g id="edge99" class="edge">
<title>node36&#45;&gt;node11</title>
<path fill="none" stroke="black" d="M775.87,-171.39C813.72,-163.18 865.93,-152.07 912,-143 967.74,-132.02 1031.87,-120.48 1075.28,-112.83"/>
<polygon fill="black" stroke="black" points="1076.07,-116.24 1085.31,-111.06 1074.85,-109.35 1076.07,-116.24"/>
</g>
<!-- node37&#45;&gt;node3 -->
<g id="edge104" class="edge">
<title>node37&#45;&gt;node3</title>
<path fill="none" stroke="black" d="M832.29,-242.86C859.63,-204.18 923.29,-122.24 998,-81 1075.99,-37.95 1341.48,-26.8 1457.72,-23.95"/>
<polygon fill="black" stroke="black" points="1457.92,-27.45 1467.83,-23.72 1457.75,-20.45 1457.92,-27.45"/>
</g>
<!-- node37&#45;&gt;node11 -->
<g id="edge105" class="edge">
<title>node37&#45;&gt;node11</title>
<path fill="none" stroke="black" d="M858.01,-248.8C882.31,-238.59 913.3,-223.77 938,-206 960.2,-190.03 958.26,-177.18 981,-162 1010.88,-142.05 1048.68,-127.21 1078.19,-117.54"/>
<polygon fill="black" stroke="black" points="1079.4,-120.83 1087.86,-114.46 1077.27,-114.16 1079.4,-120.83"/>
</g>
<!-- node37&#45;&gt;node30 -->
<g id="edge103" class="edge">
<title>node37&#45;&gt;node30</title>
<path fill="none" stroke="black" d="M859.64,-249.51C897.59,-236.3 953.76,-216.75 994.32,-202.64"/>
<polygon fill="black" stroke="black" points="995.72,-205.86 1004.01,-199.26 993.42,-199.25 995.72,-205.86"/>
</g>
<!-- node38&#45;&gt;node35 -->
<g id="edge112" class="edge">
<title>node38&#45;&gt;node35</title>
<path fill="none" stroke="black" stroke-dasharray="5,2" d="M571.36,-658.82C559.24,-643.2 542,-616.32 542,-589.72 542,-589.72 542,-589.72 542,-345 542,-315.28 568.97,-295.54 595.95,-283.22"/>
<polygon fill="black" stroke="black" points="597.62,-286.31 605.45,-279.17 594.88,-279.87 597.62,-286.31"/>
</g>
<!-- node39&#45;&gt;node37 -->
<g id="edge114" class="edge">
<title>node39&#45;&gt;node37</title>
<path fill="none" stroke="black" stroke-dasharray="5,2" d="M791.8,-658.68C792.69,-642.27 794,-614 794,-589.72 794,-589.72 794,-589.72 794,-345 794,-328.58 798.81,-311.03 804.12,-296.66"/>
<polygon fill="black" stroke="black" points="807.41,-297.85 807.82,-287.27 800.9,-295.29 807.41,-297.85"/>
</g>
<!-- node40&#45;&gt;node31 -->
<g id="edge116" class="edge">
<title>node40&#45;&gt;node31</title>
<path fill="none" stroke="black" stroke-dasharray="5,2" d="M897.58,-658.78C874.08,-644.93 844,-621.07 844,-589.72 844,-589.72 844,-589.72 844,-345 844,-315.66 870.14,-296.15 896.93,-283.86"/>
<polygon fill="black" stroke="black" points="898.58,-286.97 906.39,-279.81 895.82,-280.53 898.58,-286.97"/>
</g>
<!-- node42 -->
<g id="node51" class="node">
<title>node42</title>
<polygon fill="white" stroke="black" points="1839.11,-257.54 1839.11,-272.46 1800.97,-283 1747.03,-283 1708.89,-272.46 1708.89,-257.54 1747.03,-247 1800.97,-247 1839.11,-257.54"/>
<polygon fill="none" stroke="black" points="1843.1,-254.5 1843.1,-275.5 1801.51,-287 1746.49,-287 1704.9,-275.5 1704.9,-254.5 1746.49,-243 1801.51,-243 1843.1,-254.5"/>
<text text-anchor="middle" x="1774" y="-261.9" font-family="Times New Roman,serif" font-size="12.00">Qt5::WebChannel</text>
</g>
<!-- node41&#45;&gt;node42 -->
<g id="edge122" class="edge">
<title>node41&#45;&gt;node42</title>
<path fill="none" stroke="black" stroke-dasharray="5,2" d="M1936.31,-331.42C1905.89,-319.16 1860.68,-300.94 1825.7,-286.84"/>
<polygon fill="black" stroke="black" points="1826.71,-283.47 1816.12,-282.98 1824.09,-289.96 1826.71,-283.47"/>
</g>
<!-- node42&#45;&gt;node3 -->
<g id="edge120" class="edge">
<title>node42&#45;&gt;node3</title>
<path fill="none" stroke="black" d="M1767.35,-242.97C1753.23,-201.77 1716.23,-110.21 1653,-62 1628.61,-43.4 1595.81,-33.67 1568.09,-28.58"/>
<polygon fill="black" stroke="black" points="1568.58,-25.12 1558.13,-26.91 1567.42,-32.02 1568.58,-25.12"/>
</g>
<!-- node42&#45;&gt;node5 -->
<g id="edge121" class="edge">
<title>node42&#45;&gt;node5</title>
<path fill="none" stroke="black" d="M1809.26,-245.03C1823.76,-237.75 1840.9,-229.81 1857,-224 1890.7,-211.84 1929.81,-202.11 1960.56,-195.42"/>
<polygon fill="black" stroke="black" points="1961.6,-198.77 1970.64,-193.26 1960.13,-191.93 1961.6,-198.77"/>
</g>
<!-- node44 -->
<g id="node53" class="node">
<title>node44</title>
<polygon fill="white" stroke="black" points="2390.11,-176.54 2390.11,-191.46 2351.97,-202 2298.03,-202 2259.89,-191.46 2259.89,-176.54 2298.03,-166 2351.97,-166 2390.11,-176.54"/>
<polygon fill="none" stroke="black" points="2394.1,-173.5 2394.1,-194.5 2352.51,-206 2297.49,-206 2255.9,-194.5 2255.9,-173.5 2297.49,-162 2352.51,-162 2394.1,-173.5"/>
<text text-anchor="middle" x="2325" y="-180.9" font-family="Times New Roman,serif" font-size="12.00">Qt5::WebSockets</text>
</g>
<!-- node43&#45;&gt;node44 -->
<g id="edge126" class="edge">
<title>node43&#45;&gt;node44</title>
<path fill="none" stroke="black" stroke-dasharray="5,2" d="M2471.57,-250.42C2444.79,-238.47 2405.3,-220.84 2374.06,-206.9"/>
<polygon fill="black" stroke="black" points="2375.21,-203.58 2364.65,-202.7 2372.36,-209.97 2375.21,-203.58"/>
</g>
<!-- node44&#45;&gt;node3 -->
<g id="edge124" class="edge">
<title>node44&#45;&gt;node3</title>
<path fill="none" stroke="black" d="M2317.4,-161.85C2305.94,-133.46 2281.32,-84.07 2242,-62 2183.84,-29.35 1728.42,-24.03 1568.38,-23.16"/>
<polygon fill="black" stroke="black" points="1568.29,-19.66 1558.27,-23.11 1568.26,-26.66 1568.29,-19.66"/>
</g>
<!-- node44&#45;&gt;node6 -->
<g id="edge125" class="edge">
<title>node44&#45;&gt;node6</title>
<path fill="none" stroke="black" d="M2264.73,-170.92C2191.64,-156.26 2069,-131.67 1994.49,-116.73"/>
<polygon fill="black" stroke="black" points="1994.8,-113.22 1984.31,-114.69 1993.43,-120.09 1994.8,-113.22"/>
</g>
<!-- node45 -->
<g id="node54" class="node">
<title>node45</title>
<polygon fill="white" stroke="black" points="1799.4,-831.53 1804.3,-831.63 1809.15,-831.77 1813.92,-831.97 1818.61,-832.21 1823.19,-832.51 1827.64,-832.84 1831.95,-833.23 1836.1,-833.65 1840.07,-834.13 1843.85,-834.64 1847.43,-835.19 1850.8,-835.79 1853.93,-836.42 1856.84,-837.08 1859.5,-837.79 1861.91,-838.52 1864.06,-839.28 1865.96,-840.07 1867.6,-840.89 1868.97,-841.73 1870.08,-842.59 1870.93,-843.47 1871.53,-844.37 1871.87,-845.28 1871.96,-846.2 1871.81,-847.13 1871.42,-848.07 1870.8,-849.01 1869.97,-849.95 1868.93,-850.89 1867.68,-851.83 1866.25,-852.76 1864.63,-853.68 1862.84,-854.59 1860.9,-855.49 1858.81,-856.37 1856.58,-857.23 1854.23,-858.07 1851.76,-858.89 1849.18,-859.68 1846.51,-860.44 1843.76,-861.17 1840.92,-861.87 1838.02,-862.54 1835.05,-863.17 1832.04,-863.76 1828.97,-864.32 1825.87,-864.83 1822.73,-865.3 1819.57,-865.73 1816.37,-866.11 1813.16,-866.45 1809.93,-866.74 1806.69,-866.99 1803.43,-867.18 1800.17,-867.33 1796.91,-867.43 1793.64,-867.48 1790.36,-867.48 1787.09,-867.43 1783.83,-867.33 1780.57,-867.18 1777.31,-866.99 1774.07,-866.74 1770.84,-866.45 1767.63,-866.11 1764.43,-865.73 1761.27,-865.3 1758.13,-864.83 1755.03,-864.32 1751.96,-863.76 1748.95,-863.17 1745.98,-862.54 1743.08,-861.87 1740.24,-861.17 1737.49,-860.44 1734.82,-859.68 1732.24,-858.89 1729.77,-858.07 1727.42,-857.23 1725.19,-856.37 1723.1,-855.49 1721.16,-854.59 1719.37,-853.68 1717.75,-852.76 1716.32,-851.83 1715.07,-850.89 1714.03,-849.95 1713.2,-849.01 1712.58,-848.07 1712.19,-847.13 1712.04,-846.2 1712.13,-845.28 1712.47,-844.37 1713.07,-843.47 1713.92,-842.59 1715.03,-841.73 1716.4,-840.89 1718.04,-840.07 1719.94,-839.28 1722.09,-838.52 1724.5,-837.79 1727.16,-837.08 1730.07,-836.42 1733.2,-835.79 1736.57,-835.19 1740.15,-834.64 1743.93,-834.13 1747.9,-833.65 1752.05,-833.23 1756.36,-832.84 1760.81,-832.51 1765.39,-832.21 1770.08,-831.97 1774.85,-831.77 1779.7,-831.63 1784.6,-831.53 1789.53,-831.48 1794.47,-831.48 1799.4,-831.53"/>
<text text-anchor="middle" x="1792" y="-846.38" font-family="Times New Roman,serif" font-size="12.00">QaterialHotReloadApp</text>
</g>
<!-- node45&#45;&gt;node7 -->
<g id="edge129" class="edge">
<title>node45&#45;&gt;node7</title>
<path fill="none" stroke="black" stroke-dasharray="1,5" d="M1792,-831.47C1792,-801.32 1792,-738.24 1792,-701.87"/>
<polygon fill="black" stroke="black" points="1795.5,-701.51 1792,-691.51 1788.5,-701.51 1795.5,-701.51"/>
</g>
<!-- node45&#45;&gt;node26 -->
<g id="edge130" class="edge">
<title>node45&#45;&gt;node26</title>
<path fill="none" stroke="black" stroke-dasharray="1,5" d="M1753.67,-832.87C1726.45,-821.78 1689.36,-806.67 1658.21,-793.98"/>
<polygon fill="black" stroke="black" points="1659.33,-790.66 1648.75,-790.13 1656.69,-797.14 1659.33,-790.66"/>
</g>
<!-- node46 -->
<g id="node55" class="node">
<title>node46</title>
<polygon fill="white" stroke="black" points="2800.08,-581.26 2800.08,-596.17 2754.93,-606.72 2691.07,-606.72 2645.92,-596.17 2645.92,-581.26 2691.07,-570.72 2754.93,-570.72 2800.08,-581.26"/>
<text text-anchor="middle" x="2723" y="-585.62" font-family="Times New Roman,serif" font-size="12.00">SortFilterProxyModel</text>
</g>
<!-- node45&#45;&gt;node46 -->
<g id="edge135" class="edge">
<title>node45&#45;&gt;node46</title>
<path fill="none" stroke="black" stroke-dasharray="1,5" d="M1871.96,-845.04C2106.08,-834.15 2777.67,-796.81 2842,-724.43 2877.35,-684.66 2812.82,-638.11 2765.77,-611.45"/>
<polygon fill="black" stroke="black" points="2767.37,-608.33 2756.93,-606.55 2763.98,-614.46 2767.37,-608.33"/>
</g>
<!-- node46&#45;&gt;node1 -->
<g id="edge134" class="edge">
<title>node46&#45;&gt;node1</title>
<path fill="none" stroke="black" d="M2694.41,-570.58C2671.27,-556.71 2638.77,-537.23 2615.21,-523.11"/>
<polygon fill="black" stroke="black" points="2616.72,-519.93 2606.34,-517.79 2613.12,-525.93 2616.72,-519.93"/>
</g>
<!-- node46&#45;&gt;node3 -->
<g id="edge131" class="edge">
<title>node46&#45;&gt;node3</title>
<path fill="none" stroke="black" d="M2748.71,-570.58C2767.61,-555.72 2790,-532.35 2790,-505 2790,-505 2790,-505 2790,-102 2790,-39.86 1814.17,-25.99 1568.57,-23.49"/>
<polygon fill="black" stroke="black" points="1568.48,-19.99 1558.45,-23.39 1568.41,-26.98 1568.48,-19.99"/>
</g>
<!-- node46&#45;&gt;node5 -->
<g id="edge132" class="edge">
<title>node46&#45;&gt;node5</title>
<path fill="none" stroke="black" d="M2716.16,-570.4C2706.83,-548.55 2688.34,-510.82 2663,-486 2601.84,-426.08 2290.48,-287.17 2183,-243 2142.65,-226.42 2095.64,-210.55 2061.46,-199.62"/>
<polygon fill="black" stroke="black" points="2062.32,-196.22 2051.73,-196.53 2060.2,-202.89 2062.32,-196.22"/>
</g>
<!-- node46&#45;&gt;node13 -->
<g id="edge133" class="edge">
<title>node46&#45;&gt;node13</title>
<path fill="none" stroke="black" d="M2707.38,-570.47C2699.45,-561.67 2689.68,-550.8 2681,-541 2659.49,-516.71 2660.56,-503.12 2633,-486 2481.73,-392.05 2268,-361.09 2165.84,-351.3"/>
<polygon fill="black" stroke="black" points="2165.99,-347.8 2155.71,-350.36 2165.35,-354.77 2165.99,-347.8"/>
</g>
<!-- node47 -->
<g id="node56" class="node">
<title>node47</title>
<polygon fill="white" stroke="black" points="2398.21,-597.97 2267,-618.65 2135.79,-597.97 2185.91,-564.5 2348.09,-564.5 2398.21,-597.97"/>
<text text-anchor="middle" x="2267" y="-592.12" font-family="Times New Roman,serif" font-size="12.00">spdlog_header_only</text>
<text text-anchor="middle" x="2267" y="-579.12" font-family="Times New Roman,serif" font-size="12.00">(spdlog::spdlog_header_only)</text>
</g>
<!-- node47&#45;&gt;node25 -->
<g id="edge136" class="edge">
<title>node47&#45;&gt;node25</title>
<path fill="none" stroke="black" stroke-dasharray="5,2" d="M2294.28,-564.46C2308.52,-552.31 2325.8,-537.58 2339.59,-525.81"/>
<polygon fill="black" stroke="black" points="2341.92,-528.42 2347.26,-519.27 2337.38,-523.1 2341.92,-528.42"/>
</g>
</g>
</svg>
